ACEDIT-Regular.ufo
<glyph name="acedit.apl.m0s0o0d1" format="2">
  <advance width="618" />
  <unicode hex="E001" />
  <outline>
    <contour>
      <point x="64" y="538" type="line" />
      <point x="554" y="538" type="line" />
      <point x="554" y="566" type="line" />
      <point x="64" y="566" type="line" />
    </contour>
    <contour>
      <point x="80" y="220" type="line" />
      <point x="80" y="398" type="line" />
      <point x="52" y="398" type="line" />
      <point x="52" y="220" type="line" />
    </contour>
    <contour>
      <point x="445.033" y="387.25" type="line" />
      <point x="309.5" y="465.5" type="line" />
      <point x="173.967" y="387.25" type="line" />
      <point x="173.967" y="230.75" type="line" />
      <point x="309.5" y="152.5" type="line" />
      <point x="445.033" y="230.75" type="line" />
    </contour>
    <contour>
      <point x="381.813" y="267.25" type="line" />
      <point x="309.5" y="225.5" type="line" />
      <point x="237.187" y="267.25" type="line" />
      <point x="237.187" y="350.75" type="line" />
      <point x="309.5" y="392.5" type="line" />
      <point x="381.813" y="350.75" type="line" />
    </contour>
    <contour>
      <point x="309.5" y="329" type="line" />
      <point x="292.18" y="299" type="line" />
      <point x="326.82" y="299" type="line" />
    </contour>
    <contour>
      <point x="95" y="314.5" type="line" />
      <point x="531" y="314.5" type="line" />
      <point x="531" y="303.5" type="line" />
      <point x="95" y="303.5" type="line" />
    </contour>
  </outline>
</glyph>
<glyph name="acedit.apl.m0s0o3d4" format="2">
  <advance width="618" />
  <unicode hex="E016" />
  <outline>
    <contour>
      <point x="64" y="538" type="line" />
      <point x="554" y="538" type="line" />
      <point x="554" y="566" type="line" />
      <point x="64" y="566" type="line" />
    </contour>
    <contour>
      <point x="80" y="220" type="line" />
      <point x="80" y="398" type="line" />
      <point x="52" y="398" type="line" />
      <point x="52" y="220" type="line" />
    </contour>
    <contour>
      <point x="194" y="345.5" type="line" />
      <point x="443" y="345.5" type="line" />
      <point x="443" y="272.5" type="line" />
      <point x="194" y="272.5" type="line" />
    </contour>
    <contour>
      <point x="340.151" y="425.5" type="line" />
      <point x="318.5" y="438" type="line" />
      <point x="296.849" y="425.5" type="line" />
      <point x="296.849" y="400.5" type="line" />
      <point x="318.5" y="388" type="line" />
      <point x="340.151" y="400.5" type="line" />
    </contour>
    <contour>
      <point x="340.151" y="217.5" type="line" />
      <point x="318.5" y="230" type="line" />
      <point x="296.849" y="217.5" type="line" />
      <point x="296.849" y="192.5" type="line" />
      <point x="318.5" y="180" type="line" />
      <point x="340.151" y="192.5" type="line" />
    </contour>
    <contour>
      <point x="107" y="314.5" type="line" />
      <point x="543" y="314.5" type="line" />
      <point x="543" y="303.5" type="line" />
      <point x="107" y="303.5" type="line" />
    </contour>
    <contour>
      <point x="319.5" y="55" type="line" />
      <point x="319.5" y="563" type="line" />
      <point x="330.5" y="563" type="line" />
      <point x="330.5" y="55" type="line" />
    </contour>
  </outline>
</glyph>
<glyph name="acedit.apl.m0s0o4d1" format="2">
  <advance width="618" />
  <unicode hex="E019" />
  <outline>
    <contour>
      <point x="64" y="538" type="line" />
      <point x="554" y="538" type="line" />
      <point x="554" y="566" type="line" />
      <point x="64" y="566" type="line" />
    </contour>
    <contour>
      <point x="80" y="220" type="line" />
      <point x="80" y="398" type="line" />
      <point x="52" y="398" type="line" />
      <point x="52" y="220" type="line" />
    </contour>
    <contour>
      <point x="285" y="459" type="line" />
      <point x="285" y="345.5" type="line" />
      <point x="171.5" y="345.5" type="line" />
      <point x="171.5" y="272.5" type="line" />
      <point x="285" y="272.5" type="line" />
      <point x="285" y="159" type="line" />
      <point x="358" y="159" type="line" />
      <point x="358" y="272.5" type="line" />
      <point x="471.5" y="272.5" type="line" />
      <point x="471.5" y="345.5" type="line" />
      <point x="358" y="345.5" type="line" />
      <point x="358" y="459" type="line" />
    </contour>
    <contour>
      <point x="95" y="314.5" type="line" />
      <point x="531" y="314.5" type="line" />
      <point x="531" y="303.5" type="line" />
      <point x="95" y="303.5" type="line" />
    </contour>
  </outline>
</glyph>
<glyph name="acedit.apl.m0s1o0d0" format="2">
  <advance width="618" />
  <unicode hex="E024" />
  <outline>
    <contour>
      <point x="64" y="538" type="line" />
      <point x="554" y="538" type="line" />
      <point x="554" y="566" type="line" />
      <point x="64" y="566" type="line" />
    </contour>
    <contour>
      <point x="61.1244" y="218" type="line" />
      <point x="95.1244" y="276.89" type="line" />
      <point x="70.8756" y="290.89" type="line" />
      <point x="36.8756" y="232" type="line" />
    </contour>
    <contour>
      <point x="95.1244" y="290.89" type="line" />
      <point x="61.1244" y="349.779" type="line" />
      <point x="36.8756" y="335.779" type="line" />
      <point x="70.8756" y="276.89" type="line" />
    </contour>
    <contour>
      <point x="61.1244" y="335.779" type="line" />
      <point x="95.1244" y="394.669" type="line" />
      <point x="70.8756" y="408.669" type="line" />
      <point x="36.8756" y="349.779" type="line" />
    </contour>
    <contour>
      <point x="445.033" y="387.25" type="line" />
      <point x="309.5" y="465.5" type="line" />
      <point x="173.967" y="387.25" type="line" />
      <point x="173.967" y="230.75" type="line" />
      <point x="309.5" y="152.5" type="line" />
      <point x="445.033" y="230.75" type="line" />
    </contour>
    <contour>
      <point x="381.813" y="267.25" type="line" />
      <point x="309.5" y="225.5" type="line" />
      <point x="237.187" y="267.25" type="line" />
      <point x="237.187" y="350.75" type="line" />
      <point x="309.5" y="392.5" type="line" />
      <point x="381.813" y="350.75" type="line" />
    </contour>
    <contour>
      <point x="309.5" y="329" type="line" />
      <point x="292.18" y="299" type="line" />
      <point x="326.82" y="299" type="line" />
    </contour>
  </outline>
</glyph>
<glyph name="acedit.apl.m0s1o2d1" format="2">
  <advance width="618" />
  <unicode hex="E031" />
  <outline>
    <contour>
      <point x="64" y="538" type="line" />
      <point x="554" y="538" type="line" />
      <point x="554" y="566" type="line" />
      <point x="64" y="566" type="line" />
    </contour>
    <contour>
      <point x="61.1244" y="218" type="line" />
      <point x="95.1244" y="276.89" type="line" />
      <point x="70.8756" y="290.89" type="line" />
      <point x="36.8756" y="232" type="line" />
    </contour>
    <contour>
      <point x="95.1244" y="290.89" type="line" />
      <point x="61.1244" y="349.779" type="line" />
      <point x="36.8756" y="335.779" type="line" />
      <point x="70.8756" y="276.89" type="line" />
    </contour>
    <contour>
      <point x="61.1244" y="335.779" type="line" />
      <point x="95.1244" y="394.669" type="line" />
      <point x="70.8756" y="408.669" type="line" />
      <point x="36.8756" y="349.779" type="line" />
    </contour>
    <contour>
      <point x="303.376" y="196" type="line" />
      <point x="234.094" y="316" type="line" />
      <point x="258.342" y="330" type="line" />
      <point x="327.624" y="210" type="line" />
    </contour>
    <contour>
      <point x="303.376" y="210" type="line" />
      <point x="372.658" y="330" type="line" />
      <point x="396.906" y="316" type="line" />
      <point x="327.624" y="196" type="line" />
    </contour>
    <contour>
      <point x="303.376" y="276" type="line" />
      <point x="245.641" y="376" type="line" />
      <point x="269.889" y="390" type="line" />
      <point x="327.624" y="290" type="line" />
    </contour>
    <contour>
      <point x="303.376" y="290" type="line" />
      <point x="361.111" y="390" type="line" />
      <point x="385.359" y="376" type="line" />
      <point x="327.624" y="276" type="line" />
    </contour>
    <contour>
      <point x="303.376" y="346" type="line" />
      <point x="257.188" y="426" type="line" />
      <point x="281.436" y="440" type="line" />
      <point x="327.624" y="360" type="line" />
    </contour>
    <contour>
      <point x="303.376" y="360" type="line" />
      <point x="349.564" y="440" type="line" />
      <point x="373.812" y="426" type="line" />
      <point x="327.624" y="346" type="line" />
    </contour>
    <contour>
      <point x="95" y="314.5" type="line" />
      <point x="531" y="314.5" type="line" />
      <point x="531" y="303.5" type="line" />
      <point x="95" y="303.5" type="line" />
    </contour>
  </outline>
</glyph>
<glyph name="acedit.apl.m0s2o2d0" format="2">
  <advance width="618" />
  <unicode hex="E054" />
  <outline>
    <contour>
      <point x="64" y="538" type="line" />
      <point x="554" y="538" type="line" />
      <point x="554" y="566" type="line" />
      <point x="64" y="566" type="line" />
    </contour>
    <contour>
      <point x="53.7631" y="227.25" type="line" />
      <point x="87.7631" y="286.14" type="line" />
      <point x="78.2369" y="291.64" type="line" />
      <point x="44.2369" y="232.75" type="line" />
    </contour>
    <contour>
      <point x="87.7631" y="291.64" type="line" />
      <point x="53.7631" y="350.529" type="line" />
      <point x="44.2369" y="345.029" type="line" />
      <point x="78.2369" y="286.14" type="line" />
    </contour>
    <contour>
      <point x="53.7631" y="345.029" type="line" />
      <point x="87.7631" y="403.919" type="line" />
      <point x="78.2369" y="409.419" type="line" />
      <point x="44.2369" y="350.529" type="line" />
    </contour>
    <contour>
      <point x="87.7631" y="232.75" type="line" />
      <point x="53.7631" y="291.64" type="line" />
      <point x="44.2369" y="286.14" type="line" />
      <point x="78.2369" y="227.25" type="line" />
    </contour>
    <contour>
      <point x="53.7631" y="286.14" type="line" />
      <point x="87.7631" y="345.029" type="line" />
      <point x="78.2369" y="350.529" type="line" />
      <point x="44.2369" y="291.64" type="line" />
    </contour>
    <contour>
      <point x="87.7631" y="350.529" type="line" />
      <point x="53.7631" y="409.419" type="line" />
      <point x="44.2369" y="403.919" type="line" />
      <point x="78.2369" y="345.029" type="line" />
    </contour>
    <contour>
      <point x="303.376" y="196" type="line" />
      <point x="234.094" y="316" type="line" />
      <point x="258.342" y="330" type="line" />
      <point x="327.624" y="210" type="line" />
    </contour>
    <contour>
      <point x="303.376" y="210" type="line" />
      <point x="372.658" y="330" type="line" />
      <point x="396.906" y="316" type="line" />
      <point x="327.624" y="196" type="line" />
    </contour>
    <contour>
      <point x="303.376" y="276" type="line" />
      <point x="245.641" y="376" type="line" />
      <point x="269.889" y="390" type="line" />
      <point x="327.624" y="290" type="line" />
    </contour>
    <contour>
      <point x="303.376" y="290" type="line" />
      <point x="361.111" y="390" type="line" />
      <point x="385.359" y="376" type="line" />
      <point x="327.624" y="276" type="line" />
    </contour>
    <contour>
      <point x="303.376" y="346" type="line" />
      <point x="257.188" y="426" type="line" />
      <point x="281.436" y="440" type="line" />
      <point x="327.624" y="360" type="line" />
    </contour>
    <contour>
      <point x="303.376" y="360" type="line" />
      <point x="349.564" y="440" type="line" />
      <point x="373.812" y="426" type="line" />
      <point x="327.624" y="346" type="line" />
    </contour>
  </outline>
</glyph>
<glyph name="acedit.apl.m0s2o4d1" format="2">
  <advance width="618" />
  <unicode hex="E061" />
  <outline>
    <contour>
      <point x="64" y="538" type="line" />
      <point x="554" y="538" type="line" />
      <point x="554" y="566" type="line" />
      <point x="64" y="566" type="line" />
    </contour>
    <contour>
      <point x="53.7631" y="227.25" type="line" />
      <point x="87.7631" y="286.14" type="line" />
      <point x="78.2369" y="291.64" type="line" />
      <point x="44.2369" y="232.75" type="line" />
    </contour>
    <contour>
      <point x="87.7631" y="291.64" type="line" />
      <point x="53.7631" y="350.529" type="line" />
      <point x="44.2369" y="345.029" type="line" />
      <point x="78.2369" y="286.14" type="line" />
    </contour>
    <contour>
      <point x="53.7631" y="345.029" type="line" />
      <point x="87.7631" y="403.919" type="line" />
      <point x="78.2369" y="409.419" type="line" />
      <point x="44.2369" y="350.529" type="line" />
    </contour>
    <contour>
      <point x="87.7631" y="232.75" type="line" />
      <point x="53.7631" y="291.64" type="line" />
      <point x="44.2369" y="286.14" type="line" />
      <point x="78.2369" y="227.25" type="line" />
    </contour>
    <contour>
      <point x="53.7631" y="286.14" type="line" />
      <point x="87.7631" y="345.029" type="line" />
      <point x="78.2369" y="350.529" type="line" />
      <point x="44.2369" y="291.64" type="line" />
    </contour>
    <contour>
      <point x="87.7631" y="350.529" type="line" />
      <point x="53.7631" y="409.419" type="line" />
      <point x="44.2369" y="403.919" type="line" />
      <point x="78.2369" y="345.029" type="line" />
    </contour>
    <contour>
      <point x="285" y="459" type="line" />
      <point x="285" y="345.5" type="line" />
      <point x="171.5" y="345.5" type="line" />
      <point x="171.5" y="272.5" type="line" />
      <point x="285" y="272.5" type="line" />
      <point x="285" y="159" type="line" />
      <point x="358" y="159" type="line" />
      <point x="358" y="272.5" type="line" />
      <point x="471.5" y="272.5" type="line" />
      <point x="471.5" y="345.5" type="line" />
      <point x="358" y="345.5" type="line" />
      <point x="358" y="459" type="line" />
    </contour>
    <contour>
      <point x="95" y="314.5" type="line" />
      <point x="531" y="314.5" type="line" />
      <point x="531" y="303.5" type="line" />
      <point x="95" y="303.5" type="line" />
    </contour>
  </outline>
</glyph>
<glyph name="acedit.apl.m1s0o0d4" format="2">
  <advance width="618" />
  <unicode hex="E070" />
  <outline>
    <contour>
      <point x="66" y="538" type="line" />
      <point x="556" y="538" type="line" />
      <point x="556" y="566" type="line" />
      <point x="66" y="566" type="line" />
    </contour>
    <contour>
      <point x="291" y="566" type="line" />
      <point x="331" y="566" type="line" />
      <point x="311" y="600.641" type="line" />
    </contour>
    <contour>
      <point x="80" y="220" type="line" />
      <point x="80" y="398" type="line" />
      <point x="52" y="398" type="line" />
      <point x="52" y="220" type="line" />
    </contour>
    <contour>
      <point x="445.033" y="387.25" type="line" />
      <point x="309.5" y="465.5" type="line" />
      <point x="173.967" y="387.25" type="line" />
      <point x="173.967" y="230.75" type="line" />
      <point x="309.5" y="152.5" type="line" />
      <point x="445.033" y="230.75" type="line" />
    </contour>
    <contour>
      <point x="381.813" y="267.25" type="line" />
      <point x="309.5" y="225.5" type="line" />
      <point x="237.187" y="267.25" type="line" />
      <point x="237.187" y="350.75" type="line" />
      <point x="309.5" y="392.5" type="line" />
      <point x="381.813" y="350.75" type="line" />
    </contour>
    <contour>
      <point x="309.5" y="329" type="line" />
      <point x="292.18" y="299" type="line" />
      <point x="326.82" y="299" type="line" />
    </contour>
    <contour>
      <point x="107" y="314.5" type="line" />
      <point x="543" y="314.5" type="line" />
      <point x="543" y="303.5" type="line" />
      <point x="107" y="303.5" type="line" />
    </contour>
    <contour>
      <point x="319.5" y="55" type="line" />
      <point x="319.5" y="563" type="line" />
      <point x="330.5" y="563" type="line" />
      <point x="330.5" y="55" type="line" />
    </contour>
  </outline>
</glyph>
<glyph name="acedit.apl.m1s0o2d4" format="2">
  <advance width="618" />
  <unicode hex="E07C" />
  <outline>
    <contour>
      <point x="66" y="538" type="line" />
      <point x="556" y="538" type="line" />
      <point x="556" y="566" type="line" />
      <point x="66" y="566" type="line" />
    </contour>
    <contour>
      <point x="291" y="566" type="line" />
      <point x="331" y="566" type="line" />
      <point x="311" y="600.641" type="line" />
    </contour>
    <contour>
      <point x="80" y="220" type="line" />
      <point x="80" y="398" type="line" />
      <point x="52" y="398" type="line" />
      <point x="52" y="220" type="line" />
    </contour>
    <contour>
      <point x="303.376" y="196" type="line" />
      <point x="234.094" y="316" type="line" />
      <point x="258.342" y="330" type="line" />
      <point x="327.624" y="210" type="line" />
    </contour>
    <contour>
      <point x="303.376" y="210" type="line" />
      <point x="372.658" y="330" type="line" />
      <point x="396.906" y="316" type="line" />
      <point x="327.624" y="196" type="line" />
    </contour>
    <contour>
      <point x="303.376" y="276" type="line" />
      <point x="245.641" y="376" type="line" />
      <point x="269.889" y="390" type="line" />
      <point x="327.624" y="290" type="line" />
    </contour>
    <contour>
      <point x="303.376" y="290" type="line" />
      <point x="361.111" y="390" type="line" />
      <point x="385.359" y="376" type="line" />
      <point x="327.624" y="276" type="line" />
    </contour>
    <contour>
      <point x="303.376" y="346" type="line" />
      <point x="257.188" y="426" type="line" />
      <point x="281.436" y="440" type="line" />
      <point x="327.624" y="360" type="line" />
    </contour>
    <contour>
      <point x="303.376" y="360" type="line" />
      <point x="349.564" y="440" type="line" />
      <point x="373.812" y="426" type="line" />
      <point x="327.624" y="346" type="line" />
    </contour>
    <contour>
      <point x="107" y="314.5" type="line" />
      <point x="543" y="314.5" type="line" />
      <point x="543" y="303.5" type="line" />
      <point x="107" y="303.5" type="line" />
    </contour>
    <contour>
      <point x="319.5" y="55" type="line" />
      <point x="319.5" y="563" type="line" />
      <point x="330.5" y="563" type="line" />
      <point x="330.5" y="55" type="line" />
    </contour>
  </outline>
</glyph>
<glyph name="acedit.apl.m1s0o4d1" format="2">
  <advance width="618" />
  <unicode hex="E085" />
  <outline>
    <contour>
      <point x="66" y="538" type="line" />
      <point x="556" y="538" type="line" />
      <point x="556" y="566" type="line" />
      <point x="66" y="566" type="line" />
    </contour>
    <contour>
      <point x="291" y="566" type="line" />
      <point x="331" y="566" type="line" />
      <point x="311" y="600.641" type="line" />
    </contour>
    <contour>
      <point x="80" y="220" type="line" />
      <point x="80" y="398" type="line" />
      <point x="52" y="398" type="line" />
      <point x="52" y="220" type="line" />
    </contour>
    <contour>
      <point x="285" y="459" type="line" />
      <point x="285" y="345.5" type="line" />
      <point x="171.5" y="345.5" type="line" />
      <point x="171.5" y="272.5" type="line" />
      <point x="285" y="272.5" type="line" />
      <point x="285" y="159" type="line" />
      <point x="358" y="159" type="line" />
      <point x="358" y="272.5" type="line" />
      <point x="471.5" y="272.5" type="line" />
      <point x="471.5" y="345.5" type="line" />
      <point x="358" y="345.5" type="line" />
      <point x="358" y="459" type="line" />
    </contour>
    <contour>
      <point x="95" y="314.5" type="line" />
      <point x="531" y="314.5" type="line" />
      <point x="531" y="303.5" type="line" />
      <point x="95" y="303.5" type="line" />
    </contour>
  </outline>
</glyph>
<glyph name="acedit.apl.m1s1o0d4" format="2">
  <advance width="618" />
  <unicode hex="E094" />
  <outline>
    <contour>
      <point x="66" y="538" type="line" />
      <point x="556" y="538" type="line" />
      <point x="556" y="566" type="line" />
      <point x="66" y="566" type="line" />
    </contour>
    <contour>
      <point x="291" y="566" type="line" />
      <point x="331" y="566" type="line" />
      <point x="311" y="600.641" type="line" />
    </contour>
    <contour>
      <point x="61.1244" y="218" type="line" />
      <point x="95.1244" y="276.89" type="line" />
      <point x="70.8756" y="290.89" type="line" />
      <point x="36.8756" y="232" type="line" />
    </contour>
    <contour>
      <point x="95.1244" y="290.89" type="line" />
      <point x="61.1244" y="349.779" type="line" />
      <point x="36.8756" y="335.779" type="line" />
      <point x="70.8756" y="276.89" type="line" />
    </contour>
    <contour>
      <point x="61.1244" y="335.779" type="line" />
      <point x="95.1244" y="394.669" type="line" />
      <point x="70.8756" y="408.669" type="line" />
      <point x="36.8756" y="349.779" type="line" />
    </contour>
    <contour>
      <point x="445.033" y="387.25" type="line" />
      <point x="309.5" y="465.5" type="line" />
      <point x="173.967" y="387.25" type="line" />
      <point x="173.967" y="230.75" type="line" />
      <point x="309.5" y="152.5" type="line" />
      <point x="445.033" y="230.75" type="line" />
    </contour>
    <contour>
      <point x="381.813" y="267.25" type="line" />
      <point x="309.5" y="225.5" type="line" />
      <point x="237.187" y="267.25" type="line" />
      <point x="237.187" y="350.75" type="line" />
      <point x="309.5" y="392.5" type="line" />
      <point x="381.813" y="350.75" type="line" />
    </contour>
    <contour>
      <point x="309.5" y="329" type="line" />
      <point x="292.18" y="299" type="line" />
      <point x="326.82" y="299" type="line" />
    </contour>
    <contour>
      <point x="107" y="314.5" type="line" />
      <point x="543" y="314.5" type="line" />
      <point x="543" y="303.5" type="line" />
      <point x="107" y="303.5" type="line" />
    </contour>
    <contour>
      <point x="319.5" y="55" type="line" />
      <point x="319.5" y="563" type="line" />
      <point x="330.5" y="563" type="line" />
      <point x="330.5" y="55" type="line" />
    </contour>
  </outline>
</glyph>
<glyph name="acedit.apl.m1s1o1d4" format="2">
  <advance width="618" />
  <unicode hex="E09A" />
  <outline>
    <contour>
      <point x="66" y="538" type="line" />
      <point x="556" y="538" type="line" />
      <point x="556" y="566" type="line" />
      <point x="66" y="566" type="line" />
    </contour>
    <contour>
      <point x="291" y="566" type="line" />
      <point x="331" y="566" type="line" />
      <point x="311" y="600.641" type="line" />
    </contour>
    <contour>
      <point x="61.1244" y="218" type="line" />
      <point x="95.1244" y="276.89" type="line" />
      <point x="70.8756" y="290.89" type="line" />
      <point x="36.8756" y="232" type="line" />
    </contour>
    <contour>
      <point x="95.1244" y="290.89" type="line" />
      <point x="61.1244" y="349.779" type="line" />
      <point x="36.8756" y="335.779" type="line" />
      <point x="70.8756" y="276.89" type="line" />
    </contour>
    <contour>
      <point x="61.1244" y="335.779" type="line" />
      <point x="95.1244" y="394.669" type="line" />
      <point x="70.8756" y="408.669" type="line" />
      <point x="36.8756" y="349.779" type="line" />
    </contour>
    <contour>
      <point x="312.5" y="455.5" type="line" />
      <point x="185.627" y="235.75" type="line" />
      <point x="439.373" y="235.75" type="line" />
    </contour>
    <contour>
      <point x="376.153" y="272.25" type="line" />
      <point x="248.847" y="272.25" type="line" />
      <point x="312.5" y="382.5" type="line" />
    </contour>
    <contour>
      <point x="312.5" y="162.5" type="line" />
      <point x="439.373" y="382.25" type="line" />
      <point x="185.627" y="382.25" type="line" />
    </contour>
    <contour>
      <point x="248.847" y="345.75" type="line" />
      <point x="376.153" y="345.75" type="line" />
      <point x="312.5" y="235.5" type="line" />
    </contour>
    <contour>
      <point x="107" y="314.5" type="line" />
      <point x="543" y="314.5" type="line" />
      <point x="543" y="303.5" type="line" />
      <point x="107" y="303.5" type="line" />
    </contour>
    <contour>
      <point x="319.5" y="55" type="line" />
      <point x="319.5" y="563" type="line" />
      <point x="330.5" y="563" type="line" />
      <point x="330.5" y="55" type="line" />
    </contour>
  </outline>
</glyph>
<glyph name="acedit.apl.m2s0o1d1" format="2">
  <advance width="618" />
  <unicode hex="E0DF" />
  <outline>
    <contour>
      <point x="68" y="538" type="line" />
      <point x="558" y="538" type="line" />
      <point x="558" y="566" type="line" />
      <point x="68" y="566" type="line" />
    </contour>
    <contour>
      <point x="202" y="566" type="line" />
      <point x="242" y="566" type="line" />
      <point x="222" y="600.641" type="line" />
    </contour>
    <contour>
      <point x="384" y="566" type="line" />
      <point x="424" y="566" type="line" />
      <point x="404" y="600.641" type="line" />
    </contour>
    <contour>
      <point x="80" y="220" type="line" />
      <point x="80" y="398" type="line" />
      <point x="52" y="398" type="line" />
      <point x="52" y="220" type="line" />
    </contour>
    <contour>
      <point x="312.5" y="455.5" type="line" />
      <point x="185.627" y="235.75" type="line" />
      <point x="439.373" y="235.75" type="line" />
    </contour>
    <contour>
      <point x="376.153" y="272.25" type="line" />
      <point x="248.847" y="272.25" type="line" />
      <point x="312.5" y="382.5" type="line" />
    </contour>
    <contour>
      <point x="312.5" y="162.5" type="line" />
      <point x="439.373" y="382.25" type="line" />
      <point x="185.627" y="382.25" type="line" />
    </contour>
    <contour>
      <point x="248.847" y="345.75" type="line" />
      <point x="376.153" y="345.75" type="line" />
      <point x="312.5" y="235.5" type="line" />
    </contour>
    <contour>
      <point x="95" y="314.5" type="line" />
      <point x="531" y="314.5" type="line" />
      <point x="531" y="303.5" type="line" />
      <point x="95" y="303.5" type="line" />
    </contour>
  </outline>
</glyph>
<glyph name="acedit.apl.m2s0o4d2" format="2">
  <advance width="618" />
  <unicode hex="E0F2" />
  <outline>
    <contour>
      <point x="68" y="538" type="line" />
      <point x="558" y="538" type="line" />
      <point x="558" y="566" type="line" />
      <point x="68" y="566" type="line" />
    </contour>
    <contour>
      <point x="202" y="566" type="line" />
      <point x="242" y="566" type="line" />
      <point x="222" y="600.641" type="line" />
    </contour>
    <contour>
      <point x="384" y="566" type="line" />
      <point x="424" y="566" type="line" />
      <point x="404" y="600.641" type="line" />
    </contour>
    <contour>
      <point x="80" y="220" type="line" />
      <point x="80" y="398" type="line" />
      <point x="52" y="398" type="line" />
      <point x="52" y="220" type="line" />
    </contour>
    <contour>
      <point x="285" y="459" type="line" />
      <point x="285" y="345.5" type="line" />
      <point x="171.5" y="345.5" type="line" />
      <point x="171.5" y="272.5" type="line" />
      <point x="285" y="272.5" type="line" />
      <point x="285" y="159" type="line" />
      <point x="358" y="159" type="line" />
      <point x="358" y="272.5" type="line" />
      <point x="471.5" y="272.5" type="line" />
      <point x="471.5" y="345.5" type="line" />
      <point x="358" y="345.5" type="line" />
      <point x="358" y="459" type="line" />
    </contour>
    <contour>
      <point x="99" y="211.5" type="line" />
      <point x="535" y="211.5" type="line" />
      <point x="535" y="200.5" type="line" />
      <point x="99" y="200.5" type="line" />
    </contour>
    <contour>
      <point x="99" y="417.5" type="line" />
      <point x="535" y="417.5" type="line" />
      <point x="535" y="406.5" type="line" />
      <point x="99" y="406.5" type="line" />
    </contour>
  </outline>
</glyph>
<glyph name="acedit.apl.m2s1o4d2" format="2">
  <advance width="618" />
  <unicode hex="E116" />
  <outline>
    <contour>
      <point x="68" y="538" type="line" />
      <point x="558" y="538" type="line" />
      <point x="558" y="566" type="line" />
      <point x="68" y="566" type="line" />
    </contour>
    <contour>
      <point x="202" y="566" type="line" />
      <point x="242" y="566" type="line" />
      <point x="222" y="600.641" type="line" />
    </contour>
    <contour>
      <point x="384" y="566" type="line" />
      <point x="424" y="566" type="line" />
      <point x="404" y="600.641" type="line" />
    </contour>
    <contour>
      <point x="61.1244" y="218" type="line" />
      <point x="95.1244" y="276.89" type="line" />
      <point x="70.8756" y="290.89" type="line" />
      <point x="36.8756" y="232" type="line" />
    </contour>
    <contour>
      <point x="95.1244" y="290.89" type="line" />
      <point x="61.1244" y="349.779" type="line" />
      <point x="36.8756" y="335.779" type="line" />
      <point x="70.8756" y="276.89" type="line" />
    </contour>
    <contour>
      <point x="61.1244" y="335.779" type="line" />
      <point x="95.1244" y="394.669" type="line" />
      <point x="70.8756" y="408.669" type="line" />
      <point x="36.8756" y="349.779" type="line" />
    </contour>
    <contour>
      <point x="285" y="459" type="line" />
      <point x="285" y="345.5" type="line" />
      <point x="171.5" y="345.5" type="line" />
      <point x="171.5" y="272.5" type="line" />
      <point x="285" y="272.5" type="line" />
      <point x="285" y="159" type="line" />
      <point x="358" y="159" type="line" />
      <point x="358" y="272.5" type="line" />
      <point x="471.5" y="272.5" type="line" />
      <point x="471.5" y="345.5" type="line" />
      <point x="358" y="345.5" type="line" />
      <point x="358" y="459" type="line" />
    </contour>
    <contour>
      <point x="99" y="211.5" type="line" />
      <point x="535" y="211.5" type="line" />
      <point x="535" y="200.5" type="line" />
      <point x="99" y="200.5" type="line" />
    </contour>
    <contour>
      <point x="99" y="417.5" type="line" />
      <point x="535" y="417.5" type="line" />
      <point x="535" y="406.5" type="line" />
      <point x="99" y="406.5" type="line" />
    </contour>
  </outline>
</glyph>
<glyph name="acedit.apl.m2s2o4d3" format="2">
  <advance width="618" />
  <unicode hex="E13B" />
  <outline>
    <contour>
      <point x="68" y="538" type="line" />
      <point x="558" y="538" type="line" />
      <point x="558" y="566" type="line" />
      <point x="68" y="566" type="line" />
    </contour>
    <contour>
      <point x="202" y="566" type="line" />
      <point x="242" y="566" type="line" />
      <point x="222" y="600.641" type="line" />
    </contour>
    <contour>
      <point x="384" y="566" type="line" />
      <point x="424" y="566" type="line" />
      <point x="404" y="600.641" type="line" />
    </contour>
    <contour>
      <point x="53.7631" y="227.25" type="line" />
      <point x="87.7631" y="286.14" type="line" />
      <point x="78.2369" y="291.64" type="line" />
      <point x="44.2369" y="232.75" type="line" />
    </contour>
    <contour>
      <point x="87.7631" y="291.64" type="line" />
      <point x="53.7631" y="350.529" type="line" />
      <point x="44.2369" y="345.029" type="line" />
      <point x="78.2369" y="286.14" type="line" />
    </contour>
    <contour>
      <point x="53.7631" y="345.029" type="line" />
      <point x="87.7631" y="403.919" type="line" />
      <point x="78.2369" y="409.419" type="line" />
      <point x="44.2369" y="350.529" type="line" />
    </contour>
    <contour>
      <point x="87.7631" y="232.75" type="line" />
      <point x="53.7631" y="291.64" type="line" />
      <point x="44.2369" y="286.14" type="line" />
      <point x="78.2369" y="227.25" type="line" />
    </contour>
    <contour>
      <point x="53.7631" y="286.14" type="line" />
      <point x="87.7631" y="345.029" type="line" />
      <point x="78.2369" y="350.529" type="line" />
      <point x="44.2369" y="291.64" type="line" />
    </contour>
    <contour>
      <point x="87.7631" y="350.529" type="line" />
      <point x="53.7631" y="409.419" type="line" />
      <point x="44.2369" y="403.919" type="line" />
      <point x="78.2369" y="345.029" type="line" />
    </contour>
    <contour>
      <point x="285" y="459" type="line" />
      <point x="285" y="345.5" type="line" />
      <point x="171.5" y="345.5" type="line" />
      <point x="171.5" y="272.5" type="line" />
      <point x="285" y="272.5" type="line" />
      <point x="285" y="159" type="line" />
      <point x="358" y="159" type="line" />
      <point x="358" y="272.5" type="line" />
      <point x="471.5" y="272.5" type="line" />
      <point x="471.5" y="345.5" type="line" />
      <point x="358" y="345.5" type="line" />
      <point x="358" y="459" type="line" />
    </contour>
    <contour>
      <point x="100.25" y="59.7631" type="line" />
      <point x="536.25" y="311.488" type="line" />
      <point x="541.75" y="301.962" type="line" />
      <point x="105.75" y="50.2369" type="line" />
    </contour>
  </outline>
</glyph>
<glyph name="acedit.apl.m3s0o1d0" format="2">
  <advance width="618" />
  <unicode hex="E14A" />
  <outline>
    <contour>
      <point x="70" y="538" type="line" />
      <point x="560" y="538" type="line" />
      <point x="560" y="566" type="line" />
      <point x="70" y="566" type="line" />
    </contour>
    <contour>
      <point x="159" y="566" type="line" />
      <point x="199" y="566" type="line" />
      <point x="179" y="600.641" type="line" />
    </contour>
    <contour>
      <point x="295" y="566" type="line" />
      <point x="335" y="566" type="line" />
      <point x="315" y="600.641" type="line" />
    </contour>
    <contour>
      <point x="431" y="566" type="line" />
      <point x="471" y="566" type="line" />
      <point x="451" y="600.641" type="line" />
    </contour>
    <contour>
      <point x="80" y="220" type="line" />
      <point x="80" y="398" type="line" />
      <point x="52" y="398" type="line" />
      <point x="52" y="220" type="line" />
    </contour>
    <contour>
      <point x="312.5" y="455.5" type="line" />
      <point x="185.627" y="235.75" type="line" />
      <point x="439.373" y="235.75" type="line" />
    </contour>
    <contour>
      <point x="376.153" y="272.25" type="line" />
      <point x="248.847" y="272.25" type="line" />
      <point x="312.5" y="382.5" type="line" />
    </contour>
    <contour>
      <point x="312.5" y="162.5" type="line" />
      <point x="439.373" y="382.25" type="line" />
      <point x="185.627" y="382.25" type="line" />
    </contour>
    <contour>
      <point x="248.847" y="345.75" type="line" />
      <point x="376.153" y="345.75" type="line" />
      <point x="312.5" y="235.5" type="line" />
    </contour>
  </outline>
</glyph>
<glyph name="acedit.apl.m3s0o4d3" format="2">
  <advance width="618" />
  <unicode hex="E15F" />
  <outline>
    <contour>
      <point x="70" y="538" type="line" />
      <point x="560" y="538" type="line" />
      <point x="560" y="566" type="line" />
      <point x="70" y="566" type="line" />
    </contour>
    <contour>
      <point x="159" y="566" type="line" />
      <point x="199" y="566" type="line" />
      <point x="179" y="600.641" type="line" />
    </contour>
    <contour>
      <point x="295" y="566" type="line" />
      <point x="335" y="566" type="line" />
      <point x="315" y="600.641" type="line" />
    </contour>
    <contour>
      <point x="431" y="566" type="line" />
      <point x="471" y="566" type="line" />
      <point x="451" y="600.641" type="line" />
    </contour>
    <contour>
      <point x="80" y="220" type="line" />
      <point x="80" y="398" type="line" />
      <point x="52" y="398" type="line" />
      <point x="52" y="220" type="line" />
    </contour>
    <contour>
      <point x="285" y="459" type="line" />
      <point x="285" y="345.5" type="line" />
      <point x="171.5" y="345.5" type="line" />
      <point x="171.5" y="272.5" type="line" />
      <point x="285" y="272.5" type="line" />
      <point x="285" y="159" type="line" />
      <point x="358" y="159" type="line" />
      <point x="358" y="272.5" type="line" />
      <point x="471.5" y="272.5" type="line" />
      <point x="471.5" y="345.5" type="line" />
      <point x="358" y="345.5" type="line" />
      <point x="358" y="459" type="line" />
    </contour>
    <contour>
      <point x="100.25" y="59.7631" type="line" />
      <point x="536.25" y="311.488" type="line" />
      <point x="541.75" y="301.962" type="line" />
      <point x="105.75" y="50.2369" type="line" />
    </contour>
  </outline>
</glyph>
<glyph name="acedit.apl.m3s2o1d0" format="2">
  <advance width="618" />
  <unicode hex="E192" />
  <outline>
    <contour>
      <point x="70" y="538" type="line" />
      <point x="560" y="538" type="line" />
      <point x="560" y="566" type="line" />
      <point x="70" y="566" type="line" />
    </contour>
    <contour>
      <point x="159" y="566" type="line" />
      <point x="199" y="566" type="line" />
      <point x="179" y="600.641" type="line" />
    </contour>
    <contour>
      <point x="295" y="566" type="line" />
      <point x="335" y="566" type="line" />
      <point x="315" y="600.641" type="line" />
    </contour>
    <contour>
      <point x="431" y="566" type="line" />
      <point x="471" y="566" type="line" />
      <point x="451" y="600.641" type="line" />
    </contour>
    <contour>
      <point x="53.7631" y="227.25" type="line" />
      <point x="87.7631" y="286.14" type="line" />
      <point x="78.2369" y="291.64" type="line" />
      <point x="44.2369" y="232.75" type="line" />
    </contour>
    <contour>
      <point x="87.7631" y="291.64" type="line" />
      <point x="53.7631" y="350.529" type="line" />
      <point x="44.2369" y="345.029" type="line" />
      <point x="78.2369" y="286.14" type="line" />
    </contour>
    <contour>
      <point x="53.7631" y="345.029" type="line" />
      <point x="87.7631" y="403.919" type="line" />
      <point x="78.2369" y="409.419" type="line" />
      <point x="44.2369" y="350.529" type="line" />
    </contour>
    <contour>
      <point x="87.7631" y="232.75" type="line" />
      <point x="53.7631" y="291.64" type="line" />
      <point x="44.2369" y="286.14" type="line" />
      <point x="78.2369" y="227.25" type="line" />
    </contour>
    <contour>
      <point x="53.7631" y="286.14" type="line" />
      <point x="87.7631" y="345.029" type="line" />
      <point x="78.2369" y="350.529" type="line" />
      <point x="44.2369" y="291.64" type="line" />
    </contour>
    <contour>
      <point x="87.7631" y="350.529" type="line" />
      <point x="53.7631" y="409.419" type="line" />
      <point x="44.2369" y="403.919" type="line" />
      <point x="78.2369" y="345.029" type="line" />
    </contour>
    <contour>
      <point x="312.5" y="455.5" type="line" />
      <point x="185.627" y="235.75" type="line" />
      <point x="439.373" y="235.75" type="line" />
    </contour>
    <contour>
      <point x="376.153" y="272.25" type="line" />
      <point x="248.847" y="272.25" type="line" />
      <point x="312.5" y="382.5" type="line" />
    </contour>
    <contour>
      <point x="312.5" y="162.5" type="line" />
      <point x="439.373" y="382.25" type="line" />
      <point x="185.627" y="382.25" type="line" />
    </contour>
    <contour>
      <point x="248.847" y="345.75" type="line" />
      <point x="376.153" y="345.75" type="line" />
      <point x="312.5" y="235.5" type="line" />
    </contour>
  </outline>
</glyph>
<glyph name="acedit.apl.m3s2o1d3" format="2">
  <advance width="618" />
  <unicode hex="E195" />
  <outline>
    <contour>
      <point x="70" y="538" type="line" />
      <point x="560" y="538" type="line" />
      <point x="560" y="566" type="line" />
      <point x="70" y="566" type="line" />
    </contour>
    <contour>
      <point x="159" y="566" type="line" />
      <point x="199" y="566" type="line" />
      <point x="179" y="600.641" type="line" />
    </contour>
    <contour>
      <point x="295" y="566" type="line" />
      <point x="335" y="566" type="line" />
      <point x="315" y="600.641" type="line" />
    </contour>
    <contour>
      <point x="431" y="566" type="line" />
      <point x="471" y="566" type="line" />
      <point x="451" y="600.641" type="line" />
    </contour>
    <contour>
      <point x="53.7631" y="227.25" type="line" />
      <point x="87.7631" y="286.14" type="line" />
      <point x="78.2369" y="291.64" type="line" />
      <point x="44.2369" y="232.75" type="line" />
    </contour>
    <contour>
      <point x="87.7631" y="291.64" type="line" />
      <point x="53.7631" y="350.529" type="line" />
      <point x="44.2369" y="345.029" type="line" />
      <point x="78.2369" y="286.14" type="line" />
    </contour>
    <contour>
      <point x="53.7631" y="345.029" type="line" />
      <point x="87.7631" y="403.919" type="line" />
      <point x="78.2369" y="409.419" type="line" />
      <point x="44.2369" y="350.529" type="line" />
    </contour>
    <contour>
      <point x="87.7631" y="232.75" type="line" />
      <point x="53.7631" y="291.64" type="line" />
      <point x="44.2369" y="286.14" type="line" />
      <point x="78.2369" y="227.25" type="line" />
    </contour>
    <contour>
      <point x="53.7631" y="286.14" type="line" />
      <point x="87.7631" y="345.029" type="line" />
      <point x="78.2369" y="350.529" type="line" />
      <point x="44.2369" y="291.64" type="line" />
    </contour>
    <contour>
      <point x="87.7631" y="350.529" type="line" />
      <point x="53.7631" y="409.419" type="line" />
      <point x="44.2369" y="403.919" type="line" />
      <point x="78.2369" y="345.029" type="line" />
    </contour>
    <contour>
      <point x="312.5" y="455.5" type="line" />
      <point x="185.627" y="235.75" type="line" />
      <point x="439.373" y="235.75" type="line" />
    </contour>
    <contour>
      <point x="376.153" y="272.25" type="line" />
      <point x="248.847" y="272.25" type="line" />
      <point x="312.5" y="382.5" type="line" />
    </contour>
    <contour>
      <point x="312.5" y="162.5" type="line" />
      <point x="439.373" y="382.25" type="line" />
      <point x="185.627" y="382.25" type="line" />
    </contour>
    <contour>
      <point x="248.847" y="345.75" type="line" />
      <point x="376.153" y="345.75" type="line" />
      <point x="312.5" y="235.5" type="line" />
    </contour>
    <contour>
      <point x="100.25" y="59.7631" type="line" />
      <point x="536.25" y="311.488" type="line" />
      <point x="541.75" y="301.962" type="line" />
      <point x="105.75" y="50.2369" type="line" />
    </contour>
  </outline>
</glyph>
<glyph name="acedit.apl.m4s0o2d4" format="2">
  <advance width="618" />
  <unicode hex="E1C0" />
  <outline>
    <contour>
      <point x="72" y="538" type="line" />
      <point x="562" y="538" type="line" />
      <point x="562" y="566" type="line" />
      <point x="496" y="566" type="line" />
      <point x="496" y="602" type="line" />
      <point x="456" y="602" type="line" />
      <point x="456" y="566" type="line" />
      <point x="390" y="566" type="line" />
      <point x="390" y="602" type="line" />
      <point x="350" y="602" type="line" />
      <point x="350" y="566" type="line" />
      <point x="284" y="566" type="line" />
      <point x="284" y="602" type="line" />
      <point x="244" y="602" type="line" />
      <point x="244" y="566" type="line" />
      <point x="178" y="566" type="line" />
      <point x="178" y="602" type="line" />
      <point x="138" y="602" type="line" />
      <point x="138" y="566" type="line" />
      <point x="72" y="566" type="line" />
    </contour>
    <contour>
      <point x="80" y="220" type="line" />
      <point x="80" y="398" type="line" />
      <point x="52" y="398" type="line" />
      <point x="52" y="220" type="line" />
    </contour>
    <contour>
      <point x="303.376" y="196" type="line" />
      <point x="234.094" y="316" type="line" />
      <point x="258.342" y="330" type="line" />
      <point x="327.624" y="210" type="line" />
    </contour>
    <contour>
      <point x="303.376" y="210" type="line" />
      <point x="372.658" y="330" type="line" />
      <point x="396.906" y="316" type="line" />
      <point x="327.624" y="196" type="line" />
    </contour>
    <contour>
      <point x="303.376" y="276" type="line" />
      <point x="245.641" y="376" type="line" />
      <point x="269.889" y="390" type="line" />
      <point x="327.624" y="290" type="line" />
    </contour>
    <contour>
      <point x="303.376" y="290" type="line" />
      <point x="361.111" y="390" type="line" />
      <point x="385.359" y="376" type="line" />
      <point x="327.624" y="276" type="line" />
    </contour>
    <contour>
      <point x="303.376" y="346" type="line" />
      <point x="257.188" y="426" type="line" />
      <point x="281.436" y="440" type="line" />
      <point x="327.624" y="360" type="line" />
    </contour>
    <contour>
      <point x="303.376" y="360" type="line" />
      <point x="349.564" y="440" type="line" />
      <point x="373.812" y="426" type="line" />
      <point x="327.624" y="346" type="line" />
    </contour>
    <contour>
      <point x="107" y="314.5" type="line" />
      <point x="543" y="314.5" type="line" />
      <point x="543" y="303.5" type="line" />
      <point x="107" y="303.5" type="line" />
    </contour>
    <contour>
      <point x="319.5" y="55" type="line" />
      <point x="319.5" y="563" type="line" />
      <point x="330.5" y="563" type="line" />
      <point x="330.5" y="55" type="line" />
    </contour>
  </outline>
</glyph>
<glyph name="acedit.apl.m4s0o3d0" format="2">
  <advance width="618" />
  <unicode hex="E1C2" />
  <outline>
    <contour>
      <point x="72" y="538" type="line" />
      <point x="562" y="538" type="line" />
      <point x="562" y="566" type="line" />
      <point x="496" y="566" type="line" />
      <point x="496" y="602" type="line" />
      <point x="456" y="602" type="line" />
      <point x="456" y="566" type="line" />
      <point x="390" y="566" type="line" />
      <point x="390" y="602" type="line" />
      <point x="350" y="602" type="line" />
      <point x="350" y="566" type="line" />
      <point x="284" y="566" type="line" />
      <point x="284" y="602" type="line" />
      <point x="244" y="602" type="line" />
      <point x="244" y="566" type="line" />
      <point x="178" y="566" type="line" />
      <point x="178" y="602" type="line" />
      <point x="138" y="602" type="line" />
      <point x="138" y="566" type="line" />
      <point x="72" y="566" type="line" />
    </contour>
    <contour>
      <point x="80" y="220" type="line" />
      <point x="80" y="398" type="line" />
      <point x="52" y="398" type="line" />
      <point x="52" y="220" type="line" />
    </contour>
    <contour>
      <point x="194" y="345.5" type="line" />
      <point x="443" y="345.5" type="line" />
      <point x="443" y="272.5" type="line" />
      <point x="194" y="272.5" type="line" />
    </contour>
    <contour>
      <point x="340.151" y="425.5" type="line" />
      <point x="318.5" y="438" type="line" />
      <point x="296.849" y="425.5" type="line" />
      <point x="296.849" y="400.5" type="line" />
      <point x="318.5" y="388" type="line" />
      <point x="340.151" y="400.5" type="line" />
    </contour>
    <contour>
      <point x="340.151" y="217.5" type="line" />
      <point x="318.5" y="230" type="line" />
      <point x="296.849" y="217.5" type="line" />
      <point x="296.849" y="192.5" type="line" />
      <point x="318.5" y="180" type="line" />
      <point x="340.151" y="192.5" type="line" />
    </contour>
  </outline>
</glyph>
<glyph name="acedit.apl.m4s1o1d3" format="2">
  <advance width="618" />
  <unicode hex="E1DD" />
  <outline>
    <contour>
      <point x="72" y="538" type="line" />
      <point x="562" y="538" type="line" />
      <point x="562" y="566" type="line" />
      <point x="496" y="566" type="line" />
      <point x="496" y="602" type="line" />
      <point x="456" y="602" type="line" />
      <point x="456" y="566" type="line" />
      <point x="390" y="566" type="line" />
      <point x="390" y="602" type="line" />
      <point x="350" y="602" type="line" />
      <point x="350" y="566" type="line" />
      <point x="284" y="566" type="line" />
      <point x="284" y="602" type="line" />
      <point x="244" y="602" type="line" />
      <point x="244" y="566" type="line" />
      <point x="178" y="566" type="line" />
      <point x="178" y="602" type="line" />
      <point x="138" y="602" type="line" />
      <point x="138" y="566" type="line" />
      <point x="72" y="566" type="line" />
    </contour>
    <contour>
      <point x="61.1244" y="218" type="line" />
      <point x="95.1244" y="276.89" type="line" />
      <point x="70.8756" y="290.89" type="line" />
      <point x="36.8756" y="232" type="line" />
    </contour>
    <contour>
      <point x="95.1244" y="290.89" type="line" />
      <point x="61.1244" y="349.779" type="line" />
      <point x="36.8756" y="335.779" type="line" />
      <point x="70.8756" y="276.89" type="line" />
    </contour>
    <contour>
      <point x="61.1244" y="335.779" type="line" />
      <point x="95.1244" y="394.669" type="line" />
      <point x="70.8756" y="408.669" type="line" />
      <point x="36.8756" y="349.779" type="line" />
    </contour>
    <contour>
      <point x="312.5" y="455.5" type="line" />
      <point x="185.627" y="235.75" type="line" />
      <point x="439.373" y="235.75" type="line" />
    </contour>
    <contour>
      <point x="376.153" y="272.25" type="line" />
      <point x="248.847" y="272.25" type="line" />
      <point x="312.5" y="382.5" type="line" />
    </contour>
    <contour>
      <point x="312.5" y="162.5" type="line" />
      <point x="439.373" y="382.25" type="line" />
      <point x="185.627" y="382.25" type="line" />
    </contour>
    <contour>
      <point x="248.847" y="345.75" type="line" />
      <point x="376.153" y="345.75" type="line" />
      <point x="312.5" y="235.5" type="line" />
    </contour>
    <contour>
      <point x="100.25" y="59.7631" type="line" />
      <point x="536.25" y="311.488" type="line" />
      <point x="541.75" y="301.962" type="line" />
      <point x="105.75" y="50.2369" type="line" />
    </contour>
  </outline>
</glyph>
<glyph name="acedit.apl.m4s1o3d5" format="2">
  <advance width="618" />
  <unicode hex="E1EB" />
  <outline>
    <contour>
      <point x="72" y="538" type="line" />
      <point x="562" y="538" type="line" />
      <point x="562" y="566" type="line" />
      <point x="496" y="566" type="line" />
      <point x="496" y="602" type="line" />
      <point x="456" y="602" type="line" />
      <point x="456" y="566" type="line" />
      <point x="390" y="566" type="line" />
      <point x="390" y="602" type="line" />
      <point x="350" y="602" type="line" />
      <point x="350" y="566" type="line" />
      <point x="284" y="566" type="line" />
      <point x="284" y="602" type="line" />
      <point x="244" y="602" type="line" />
      <point x="244" y="566" type="line" />
      <point x="178" y="566" type="line" />
      <point x="178" y="602" type="line" />
      <point x="138" y="602" type="line" />
      <point x="138" y="566" type="line" />
      <point x="72" y="566" type="line" />
    </contour>
    <contour>
      <point x="61.1244" y="218" type="line" />
      <point x="95.1244" y="276.89" type="line" />
      <point x="70.8756" y="290.89" type="line" />
      <point x="36.8756" y="232" type="line" />
    </contour>
    <contour>
      <point x="95.1244" y="290.89" type="line" />
      <point x="61.1244" y="349.779" type="line" />
      <point x="36.8756" y="335.779" type="line" />
      <point x="70.8756" y="276.89" type="line" />
    </contour>
    <contour>
      <point x="61.1244" y="335.779" type="line" />
      <point x="95.1244" y="394.669" type="line" />
      <point x="70.8756" y="408.669" type="line" />
      <point x="36.8756" y="349.779" type="line" />
    </contour>
    <contour>
      <point x="194" y="345.5" type="line" />
      <point x="443" y="345.5" type="line" />
      <point x="443" y="272.5" type="line" />
      <point x="194" y="272.5" type="line" />
    </contour>
    <contour>
      <point x="340.151" y="425.5" type="line" />
      <point x="318.5" y="438" type="line" />
      <point x="296.849" y="425.5" type="line" />
      <point x="296.849" y="400.5" type="line" />
      <point x="318.5" y="388" type="line" />
      <point x="340.151" y="400.5" type="line" />
    </contour>
    <contour>
      <point x="340.151" y="217.5" type="line" />
      <point x="318.5" y="230" type="line" />
      <point x="296.849" y="217.5" type="line" />
      <point x="296.849" y="192.5" type="line" />
      <point x="318.5" y="180" type="line" />
      <point x="340.151" y="192.5" type="line" />
    </contour>
    <contour>
      <point x="111" y="314.5" type="line" />
      <point x="547" y="314.5" type="line" />
      <point x="547" y="303.5" type="line" />
      <point x="111" y="303.5" type="line" />
    </contour>
    <contour>
      <point x="224.237" y="138.545" type="line" />
      <point x="424.237" y="484.955" type="line" />
      <point x="433.763" y="479.455" type="line" />
      <point x="233.763" y="133.045" type="line" />
    </contour>
    <contour>
      <point x="424.237" y="133.045" type="line" />
      <point x="224.237" y="479.455" type="line" />
      <point x="233.763" y="484.955" type="line" />
      <point x="433.763" y="138.545" type="line" />
    </contour>
  </outline>
</glyph>
<glyph name="acedit.apl.m4s1o5d5" format="2">
  <advance width="618" />
  <unicode hex="E1F7" />
  <outline>
    <contour>
      <point x="72" y="538" type="line" />
      <point x="562" y="538" type="line" />
      <point x="562" y="566" type="line" />
      <point x="496" y="566" type="line" />
      <point x="496" y="602" type="line" />
      <point x="456" y="602" type="line" />
      <point x="456" y="566" type="line" />
      <point x="390" y="566" type="line" />
      <point x="390" y="602" type="line" />
      <point x="350" y="602" type="line" />
      <point x="350" y="566" type="line" />
      <point x="284" y="566" type="line" />
      <point x="284" y="602" type="line" />
      <point x="244" y="602" type="line" />
      <point x="244" y="566" type="line" />
      <point x="178" y="566" type="line" />
      <point x="178" y="602" type="line" />
      <point x="138" y="602" type="line" />
      <point x="138" y="566" type="line" />
      <point x="72" y="566" type="line" />
    </contour>
    <contour>
      <point x="61.1244" y="218" type="line" />
      <point x="95.1244" y="276.89" type="line" />
      <point x="70.8756" y="290.89" type="line" />
      <point x="36.8756" y="232" type="line" />
    </contour>
    <contour>
      <point x="95.1244" y="290.89" type="line" />
      <point x="61.1244" y="349.779" type="line" />
      <point x="36.8756" y="335.779" type="line" />
      <point x="70.8756" y="276.89" type="line" />
    </contour>
    <contour>
      <point x="61.1244" y="335.779" type="line" />
      <point x="95.1244" y="394.669" type="line" />
      <point x="70.8756" y="408.669" type="line" />
      <point x="36.8756" y="349.779" type="line" />
    </contour>
    <contour>
      <point x="345.954" y="399.471" type="line" />
      <point x="231.827" y="316.553" type="line" />
      <point x="188.919" y="375.611" type="line" />
      <point x="303.046" y="458.529" type="line" />
    </contour>
    <contour>
      <point x="245.087" y="357.361" type="line" />
      <point x="288.679" y="223.197" type="line" />
      <point x="219.252" y="200.639" type="line" />
      <point x="175.66" y="334.803" type="line" />
    </contour>
    <contour>
      <point x="253.966" y="248.418" type="line" />
      <point x="395.034" y="248.418" type="line" />
      <point x="395.034" y="175.418" type="line" />
      <point x="253.966" y="175.418" type="line" />
    </contour>
    <contour>
      <point x="360.321" y="223.197" type="line" />
      <point x="403.913" y="357.361" type="line" />
      <point x="473.34" y="334.803" type="line" />
      <point x="429.748" y="200.639" type="line" />
    </contour>
    <contour>
      <point x="327.733" y="433.45" type="line" />
      <point x="343.913" y="421.694" type="line" />
      <point x="337.447" y="412.795" type="line" />
      <point x="321.267" y="424.55" type="line" />
    </contour>
    <contour>
      <point x="435.394" y="341.632" type="line" />
      <point x="419.214" y="353.388" type="line" />
      <point x="425.679" y="362.287" type="line" />
      <point x="441.86" y="350.532" type="line" />
    </contour>
    <contour>
      <point x="111" y="314.5" type="line" />
      <point x="547" y="314.5" type="line" />
      <point x="547" y="303.5" type="line" />
      <point x="111" y="303.5" type="line" />
    </contour>
    <contour>
      <point x="224.237" y="138.545" type="line" />
      <point x="424.237" y="484.955" type="line" />
      <point x="433.763" y="479.455" type="line" />
      <point x="233.763" y="133.045" type="line" />
    </contour>
    <contour>
      <point x="424.237" y="133.045" type="line" />
      <point x="224.237" y="479.455" type="line" />
      <point x="233.763" y="484.955" type="line" />
      <point x="433.763" y="138.545" type="line" />
    </contour>
  </outline>
</glyph>
<glyph name="acedit.apl.m4s2o1d2" format="2">
  <advance width="618" />
  <unicode hex="E200" />
  <outline>
    <contour>
      <point x="72" y="538" type="line" />
      <point x="562" y="538" type="line" />
      <point x="562" y="566" type="line" />
      <point x="496" y="566" type="line" />
      <point x="496" y="602" type="line" />
      <point x="456" y="602" type="line" />
      <point x="456" y="566" type="line" />
      <point x="390" y="566" type="line" />
      <point x="390" y="602" type="line" />
      <point x="350" y="602" type="line" />
      <point x="350" y="566" type="line" />
      <point x="284" y="566" type="line" />
      <point x="284" y="602" type="line" />
      <point x="244" y="602" type="line" />
      <point x="244" y="566" type="line" />
      <point x="178" y="566" type="line" />
      <point x="178" y="602" type="line" />
      <point x="138" y="602" type="line" />
      <point x="138" y="566" type="line" />
      <point x="72" y="566" type="line" />
    </contour>
    <contour>
      <point x="53.7631" y="227.25" type="line" />
      <point x="87.7631" y="286.14" type="line" />
      <point x="78.2369" y="291.64" type="line" />
      <point x="44.2369" y="232.75" type="line" />
    </contour>
    <contour>
      <point x="87.7631" y="291.64" type="line" />
      <point x="53.7631" y="350.529" type="line" />
      <point x="44.2369" y="345.029" type="line" />
      <point x="78.2369" y="286.14" type="line" />
    </contour>
    <contour>
      <point x="53.7631" y="345.029" type="line" />
      <point x="87.7631" y="403.919" type="line" />
      <point x="78.2369" y="409.419" type="line" />
      <point x="44.2369" y="350.529" type="line" />
    </contour>
    <contour>
      <point x="87.7631" y="232.75" type="line" />
      <point x="53.7631" y="291.64" type="line" />
      <point x="44.2369" y="286.14" type="line" />
      <point x="78.2369" y="227.25" type="line" />
    </contour>
    <contour>
      <point x="53.7631" y="286.14" type="line" />
      <point x="87.7631" y="345.029" type="line" />
      <point x="78.2369" y="350.529" type="line" />
      <point x="44.2369" y="291.64" type="line" />
    </contour>
    <contour>
      <point x="87.7631" y="350.529" type="line" />
      <point x="53.7631" y="409.419" type="line" />
      <point x="44.2369" y="403.919" type="line" />
      <point x="78.2369" y="345.029" type="line" />
    </contour>
    <contour>
      <point x="312.5" y="455.5" type="line" />
      <point x="185.627" y="235.75" type="line" />
      <point x="439.373" y="235.75" type="line" />
    </contour>
    <contour>
      <point x="376.153" y="272.25" type="line" />
      <point x="248.847" y="272.25" type="line" />
      <point x="312.5" y="382.5" type="line" />
    </contour>
    <contour>
      <point x="312.5" y="162.5" type="line" />
      <point x="439.373" y="382.25" type="line" />
      <point x="185.627" y="382.25" type="line" />
    </contour>
    <contour>
      <point x="248.847" y="345.75" type="line" />
      <point x="376.153" y="345.75" type="line" />
      <point x="312.5" y="235.5" type="line" />
    </contour>
    <contour>
      <point x="99" y="211.5" type="line" />
      <point x="535" y="211.5" type="line" />
      <point x="535" y="200.5" type="line" />
      <point x="99" y="200.5" type="line" />
    </contour>
    <contour>
      <point x="99" y="417.5" type="line" />
      <point x="535" y="417.5" type="line" />
      <point x="535" y="406.5" type="line" />
      <point x="99" y="406.5" type="line" />
    </contour>
  </outline>
</glyph>
<glyph name="acedit.apl.m4s2o1d3" format="2">
  <advance width="618" />
  <unicode hex="E201" />
  <outline>
    <contour>
      <point x="72" y="538" type="line" />
      <point x="562" y="538" type="line" />
      <point x="562" y="566" type="line" />
      <point x="496" y="566" type="line" />
      <point x="496" y="602" type="line" />
      <point x="456" y="602" type="line" />
      <point x="456" y="566" type="line" />
      <point x="390" y="566" type="line" />
      <point x="390" y="602" type="line" />
      <point x="350" y="602" type="line" />
      <point x="350" y="566" type="line" />
      <point x="284" y="566" type="line" />
      <point x="284" y="602" type="line" />
      <point x="244" y="602" type="line" />
      <point x="244" y="566" type="line" />
      <point x="178" y="566" type="line" />
      <point x="178" y="602" type="line" />
      <point x="138" y="602" type="line" />
      <point x="138" y="566" type="line" />
      <point x="72" y="566" type="line" />
    </contour>
    <contour>
      <point x="53.7631" y="227.25" type="line" />
      <point x="87.7631" y="286.14" type="line" />
      <point x="78.2369" y="291.64" type="line" />
      <point x="44.2369" y="232.75" type="line" />
    </contour>
    <contour>
      <point x="87.7631" y="291.64" type="line" />
      <point x="53.7631" y="350.529" type="line" />
      <point x="44.2369" y="345.029" type="line" />
      <point x="78.2369" y="286.14" type="line" />
    </contour>
    <contour>
      <point x="53.7631" y="345.029" type="line" />
      <point x="87.7631" y="403.919" type="line" />
      <point x="78.2369" y="409.419" type="line" />
      <point x="44.2369" y="350.529" type="line" />
    </contour>
    <contour>
      <point x="87.7631" y="232.75" type="line" />
      <point x="53.7631" y="291.64" type="line" />
      <point x="44.2369" y="286.14" type="line" />
      <point x="78.2369" y="227.25" type="line" />
    </contour>
    <contour>
      <point x="53.7631" y="286.14" type="line" />
      <point x="87.7631" y="345.029" type="line" />
      <point x="78.2369" y="350.529" type="line" />
      <point x="44.2369" y="291.64" type="line" />
    </contour>
    <contour>
      <point x="87.7631" y="350.529" type="line" />
      <point x="53.7631" y="409.419" type="line" />
      <point x="44.2369" y="403.919" type="line" />
      <point x="78.2369" y="345.029" type="line" />
    </contour>
    <contour>
      <point x="312.5" y="455.5" type="line" />
      <point x="185.627" y="235.75" type="line" />
      <point x="439.373" y="235.75" type="line" />
    </contour>
    <contour>
      <point x="376.153" y="272.25" type="line" />
      <point x="248.847" y="272.25" type="line" />
      <point x="312.5" y="382.5" type="line" />
    </contour>
    <contour>
      <point x="312.5" y="162.5" type="line" />
      <point x="439.373" y="382.25" type="line" />
      <point x="185.627" y="382.25" type="line" />
    </contour>
    <contour>
      <point x="248.847" y="345.75" type="line" />
      <point x="376.153" y="345.75" type="line" />
      <point x="312.5" y="235.5" type="line" />
    </contour>
    <contour>
      <point x="100.25" y="59.7631" type="line" />
      <point x="536.25" y="311.488" type="line" />
      <point x="541.75" y="301.962" type="line" />
      <point x="105.75" y="50.2369" type="line" />
    </contour>
  </outline>
</glyph>
<glyph name="acedit.apl.m4s2o1d5" format="2">
  <advance width="618" />
  <unicode hex="E203" />
  <outline>
    <contour>
      <point x="72" y="538" type="line" />
      <point x="562" y="538" type="line" />
      <point x="562" y="566" type="line" />
      <point x="496" y="566" type="line" />
      <point x="496" y="602" type="line" />
      <point x="456" y="602" type="line" />
      <point x="456" y="566" type="line" />
      <point x="390" y="566" type="line" />
      <point x="390" y="602" type="line" />
      <point x="350" y="602" type="line" />
      <point x="350" y="566" type="line" />
      <point x="284" y="566" type="line" />
      <point x="284" y="602" type="line" />
      <point x="244" y="602" type="line" />
      <point x="244" y="566" type="line" />
      <point x="178" y="566" type="line" />
      <point x="178" y="602" type="line" />
      <point x="138" y="602" type="line" />
      <point x="138" y="566" type="line" />
      <point x="72" y="566" type="line" />
    </contour>
    <contour>
      <point x="53.7631" y="227.25" type="line" />
      <point x="87.7631" y="286.14" type="line" />
      <point x="78.2369" y="291.64" type="line" />
      <point x="44.2369" y="232.75" type="line" />
    </contour>
    <contour>
      <point x="87.7631" y="291.64" type="line" />
      <point x="53.7631" y="350.529" type="line" />
      <point x="44.2369" y="345.029" type="line" />
      <point x="78.2369" y="286.14" type="line" />
    </contour>
    <contour>
      <point x="53.7631" y="345.029" type="line" />
      <point x="87.7631" y="403.919" type="line" />
      <point x="78.2369" y="409.419" type="line" />
      <point x="44.2369" y="350.529" type="line" />
    </contour>
    <contour>
      <point x="87.7631" y="232.75" type="line" />
      <point x="53.7631" y="291.64" type="line" />
      <point x="44.2369" y="286.14" type="line" />
      <point x="78.2369" y="227.25" type="line" />
    </contour>
    <contour>
      <point x="53.7631" y="286.14" type="line" />
      <point x="87.7631" y="345.029" type="line" />
      <point x="78.2369" y="350.529" type="line" />
      <point x="44.2369" y="291.64" type="line" />
    </contour>
    <contour>
      <point x="87.7631" y="350.529" type="line" />
      <point x="53.7631" y="409.419" type="line" />
      <point x="44.2369" y="403.919" type="line" />
      <point x="78.2369" y="345.029" type="line" />
    </contour>
    <contour>
      <point x="312.5" y="455.5" type="line" />
      <point x="185.627" y="235.75" type="line" />
      <point x="439.373" y="235.75" type="line" />
    </contour>
    <contour>
      <point x="376.153" y="272.25" type="line" />
      <point x="248.847" y="272.25" type="line" />
      <point x="312.5" y="382.5" type="line" />
    </contour>
    <contour>
      <point x="312.5" y="162.5" type="line" />
      <point x="439.373" y="382.25" type="line" />
      <point x="185.627" y="382.25" type="line" />
    </contour>
    <contour>
      <point x="248.847" y="345.75" type="line" />
      <point x="376.153" y="345.75" type="line" />
      <point x="312.5" y="235.5" type="line" />
    </contour>
    <contour>
      <point x="111" y="314.5" type="line" />
      <point x="547" y="314.5" type="line" />
      <point x="547" y="303.5" type="line" />
      <point x="111" y="303.5" type="line" />
    </contour>
    <contour>
      <point x="224.237" y="138.545" type="line" />
      <point x="424.237" y="484.955" type="line" />
      <point x="433.763" y="479.455" type="line" />
      <point x="233.763" y="133.045" type="line" />
    </contour>
    <contour>
      <point x="424.237" y="133.045" type="line" />
      <point x="224.237" y="479.455" type="line" />
      <point x="233.763" y="484.955" type="line" />
      <point x="433.763" y="138.545" type="line" />
    </contour>
  </outline>
</glyph>
<glyph name="acedit.apl.m5s0o1d1" format="2">
  <advance width="618" />
  <unicode hex="E223" />
  <outline>
    <contour>
      <point x="74" y="538" type="line" />
      <point x="564" y="538" type="line" />
      <point x="564" y="566" type="line" />
      <point x="74" y="566" type="line" />
    </contour>
    <contour>
      <point x="297.124" y="540.674" type="line" />
      <point x="340.876" y="540.674" type="line" />
      <point x="354.396" y="582.284" type="line" />
      <point x="319" y="608" type="line" />
      <point x="283.604" y="582.284" type="line" />
    </contour>
    <contour>
      <point x="310.234" y="573.631" type="line" />
      <point x="319" y="580" type="line" />
      <point x="327.766" y="573.631" type="line" />
      <point x="324.418" y="563.326" type="line" />
      <point x="313.582" y="563.326" type="line" />
    </contour>
    <contour>
      <point x="80" y="220" type="line" />
      <point x="80" y="398" type="line" />
      <point x="52" y="398" type="line" />
      <point x="52" y="220" type="line" />
    </contour>
    <contour>
      <point x="312.5" y="455.5" type="line" />
      <point x="185.627" y="235.75" type="line" />
      <point x="439.373" y="235.75" type="line" />
    </contour>
    <contour>
      <point x="376.153" y="272.25" type="line" />
      <point x="248.847" y="272.25" type="line" />
      <point x="312.5" y="382.5" type="line" />
    </contour>
    <contour>
      <point x="312.5" y="162.5" type="line" />
      <point x="439.373" y="382.25" type="line" />
      <point x="185.627" y="382.25" type="line" />
    </contour>
    <contour>
      <point x="248.847" y="345.75" type="line" />
      <point x="376.153" y="345.75" type="line" />
      <point x="312.5" y="235.5" type="line" />
    </contour>
    <contour>
      <point x="95" y="314.5" type="line" />
      <point x="531" y="314.5" type="line" />
      <point x="531" y="303.5" type="line" />
      <point x="95" y="303.5" type="line" />
    </contour>
  </outline>
</glyph>
<glyph name="acedit.apl.m5s0o3d1" format="2">
  <advance width="618" />
  <unicode hex="E22F" />
  <outline>
    <contour>
      <point x="74" y="538" type="line" />
      <point x="564" y="538" type="line" />
      <point x="564" y="566" type="line" />
      <point x="74" y="566" type="line" />
    </contour>
    <contour>
      <point x="297.124" y="540.674" type="line" />
      <point x="340.876" y="540.674" type="line" />
      <point x="354.396" y="582.284" type="line" />
      <point x="319" y="608" type="line" />
      <point x="283.604" y="582.284" type="line" />
    </contour>
    <contour>
      <point x="310.234" y="573.631" type="line" />
      <point x="319" y="580" type="line" />
      <point x="327.766" y="573.631" type="line" />
      <point x="324.418" y="563.326" type="line" />
      <point x="313.582" y="563.326" type="line" />
    </contour>
    <contour>
      <point x="80" y="220" type="line" />
      <point x="80" y="398" type="line" />
      <point x="52" y="398" type="line" />
      <point x="52" y="220" type="line" />
    </contour>
    <contour>
      <point x="194" y="345.5" type="line" />
      <point x="443" y="345.5" type="line" />
      <point x="443" y="272.5" type="line" />
      <point x="194" y="272.5" type="line" />
    </contour>
    <contour>
      <point x="340.151" y="425.5" type="line" />
      <point x="318.5" y="438" type="line" />
      <point x="296.849" y="425.5" type="line" />
      <point x="296.849" y="400.5" type="line" />
      <point x="318.5" y="388" type="line" />
      <point x="340.151" y="400.5" type="line" />
    </contour>
    <contour>
      <point x="340.151" y="217.5" type="line" />
      <point x="318.5" y="230" type="line" />
      <point x="296.849" y="217.5" type="line" />
      <point x="296.849" y="192.5" type="line" />
      <point x="318.5" y="180" type="line" />
      <point x="340.151" y="192.5" type="line" />
    </contour>
    <contour>
      <point x="95" y="314.5" type="line" />
      <point x="531" y="314.5" type="line" />
      <point x="531" y="303.5" type="line" />
      <point x="95" y="303.5" type="line" />
    </contour>
  </outline>
</glyph>
<glyph name="acedit.apl.m5s1o3d5" format="2">
  <advance width="618" />
  <unicode hex="E257" />
  <outline>
    <contour>
      <point x="74" y="538" type="line" />
      <point x="564" y="538" type="line" />
      <point x="564" y="566" type="line" />
      <point x="74" y="566" type="line" />
    </contour>
    <contour>
      <point x="297.124" y="540.674" type="line" />
      <point x="340.876" y="540.674" type="line" />
      <point x="354.396" y="582.284" type="line" />
      <point x="319" y="608" type="line" />
      <point x="283.604" y="582.284" type="line" />
    </contour>
    <contour>
      <point x="310.234" y="573.631" type="line" />
      <point x="319" y="580" type="line" />
      <point x="327.766" y="573.631" type="line" />
      <point x="324.418" y="563.326" type="line" />
      <point x="313.582" y="563.326" type="line" />
    </contour>
    <contour>
      <point x="61.1244" y="218" type="line" />
      <point x="95.1244" y="276.89" type="line" />
      <point x="70.8756" y="290.89" type="line" />
      <point x="36.8756" y="232" type="line" />
    </contour>
    <contour>
      <point x="95.1244" y="290.89" type="line" />
      <point x="61.1244" y="349.779" type="line" />
      <point x="36.8756" y="335.779" type="line" />
      <point x="70.8756" y="276.89" type="line" />
    </contour>
    <contour>
      <point x="61.1244" y="335.779" type="line" />
      <point x="95.1244" y="394.669" type="line" />
      <point x="70.8756" y="408.669" type="line" />
      <point x="36.8756" y="349.779" type="line" />
    </contour>
    <contour>
      <point x="194" y="345.5" type="line" />
      <point x="443" y="345.5" type="line" />
      <point x="443" y="272.5" type="line" />
      <point x="194" y="272.5" type="line" />
    </contour>
    <contour>
      <point x="340.151" y="425.5" type="line" />
      <point x="318.5" y="438" type="line" />
      <point x="296.849" y="425.5" type="line" />
      <point x="296.849" y="400.5" type="line" />
      <point x="318.5" y="388" type="line" />
      <point x="340.151" y="400.5" type="line" />
    </contour>
    <contour>
      <point x="340.151" y="217.5" type="line" />
      <point x="318.5" y="230" type="line" />
      <point x="296.849" y="217.5" type="line" />
      <point x="296.849" y="192.5" type="line" />
      <point x="318.5" y="180" type="line" />
      <point x="340.151" y="192.5" type="line" />
    </contour>
    <contour>
      <point x="111" y="314.5" type="line" />
      <point x="547" y="314.5" type="line" />
      <point x="547" y="303.5" type="line" />
      <point x="111" y="303.5" type="line" />
    </contour>
    <contour>
      <point x="224.237" y="138.545" type="line" />
      <point x="424.237" y="484.955" type="line" />
      <point x="433.763" y="479.455" type="line" />
      <point x="233.763" y="133.045" type="line" />
    </contour>
    <contour>
      <point x="424.237" y="133.045" type="line" />
      <point x="224.237" y="479.455" type="line" />
      <point x="233.763" y="484.955" type="line" />
      <point x="433.763" y="138.545" type="line" />
    </contour>
  </outline>
</glyph>
<glyph name="acedit.apl.m5s1o5d5" format="2">
  <advance width="618" />
  <unicode hex="E263" />
  <outline>
    <contour>
      <point x="74" y="538" type="line" />
      <point x="564" y="538" type="line" />
      <point x="564" y="566" type="line" />
      <point x="74" y="566" type="line" />
    </contour>
    <contour>
      <point x="297.124" y="540.674" type="line" />
      <point x="340.876" y="540.674" type="line" />
      <point x="354.396" y="582.284" type="line" />
      <point x="319" y="608" type="line" />
      <point x="283.604" y="582.284" type="line" />
    </contour>
    <contour>
      <point x="310.234" y="573.631" type="line" />
      <point x="319" y="580" type="line" />
      <point x="327.766" y="573.631" type="line" />
      <point x="324.418" y="563.326" type="line" />
      <point x="313.582" y="563.326" type="line" />
    </contour>
    <contour>
      <point x="61.1244" y="218" type="line" />
      <point x="95.1244" y="276.89" type="line" />
      <point x="70.8756" y="290.89" type="line" />
      <point x="36.8756" y="232" type="line" />
    </contour>
    <contour>
      <point x="95.1244" y="290.89" type="line" />
      <point x="61.1244" y="349.779" type="line" />
      <point x="36.8756" y="335.779" type="line" />
      <point x="70.8756" y="276.89" type="line" />
    </contour>
    <contour>
      <point x="61.1244" y="335.779" type="line" />
      <point x="95.1244" y="394.669" type="line" />
      <point x="70.8756" y="408.669" type="line" />
      <point x="36.8756" y="349.779" type="line" />
    </contour>
    <contour>
      <point x="345.954" y="399.471" type="line" />
      <point x="231.827" y="316.553" type="line" />
      <point x="188.919" y="375.611" type="line" />
      <point x="303.046" y="458.529" type="line" />
    </contour>
    <contour>
      <point x="245.087" y="357.361" type="line" />
      <point x="288.679" y="223.197" type="line" />
      <point x="219.252" y="200.639" type="line" />
      <point x="175.66" y="334.803" type="line" />
    </contour>
    <contour>
      <point x="253.966" y="248.418" type="line" />
      <point x="395.034" y="248.418" type="line" />
      <point x="395.034" y="175.418" type="line" />
      <point x="253.966" y="175.418" type="line" />
    </contour>
    <contour>
      <point x="360.321" y="223.197" type="line" />
      <point x="403.913" y="357.361" type="line" />
      <point x="473.34" y="334.803" type="line" />
      <point x="429.748" y="200.639" type="line" />
    </contour>
    <contour>
      <point x="327.733" y="433.45" type="line" />
      <point x="343.913" y="421.694" type="line" />
      <point x="337.447" y="412.795" type="line" />
      <point x="321.267" y="424.55" type="line" />
    </contour>
    <contour>
      <point x="435.394" y="341.632" type="line" />
      <point x="419.214" y="353.388" type="line" />
      <point x="425.679" y="362.287" type="line" />
      <point x="441.86" y="350.532" type="line" />
    </contour>
    <contour>
      <point x="111" y="314.5" type="line" />
      <point x="547" y="314.5" type="line" />
      <point x="547" y="303.5" type="line" />
      <point x="111" y="303.5" type="line" />
    </contour>
    <contour>
      <point x="224.237" y="138.545" type="line" />
      <point x="424.237" y="484.955" type="line" />
      <point x="433.763" y="479.455" type="line" />
      <point x="233.763" y="133.045" type="line" />
    </contour>
    <contour>
      <point x="424.237" y="133.045" type="line" />
      <point x="224.237" y="479.455" type="line" />
      <point x="233.763" y="484.955" type="line" />
      <point x="433.763" y="138.545" type="line" />
    </contour>
  </outline>
</glyph>
<glyph name="acedit.apl.m5s2o1d4" format="2">
  <advance width="618" />
  <unicode hex="E26E" />
  <outline>
    <contour>
      <point x="74" y="538" type="line" />
      <point x="564" y="538" type="line" />
      <point x="564" y="566" type="line" />
      <point x="74" y="566" type="line" />
    </contour>
    <contour>
      <point x="297.124" y="540.674" type="line" />
      <point x="340.876" y="540.674" type="line" />
      <point x="354.396" y="582.284" type="line" />
      <point x="319" y="608" type="line" />
      <point x="283.604" y="582.284" type="line" />
    </contour>
    <contour>
      <point x="310.234" y="573.631" type="line" />
      <point x="319" y="580" type="line" />
      <point x="327.766" y="573.631" type="line" />
      <point x="324.418" y="563.326" type="line" />
      <point x="313.582" y="563.326" type="line" />
    </contour>
    <contour>
      <point x="53.7631" y="227.25" type="line" />
      <point x="87.7631" y="286.14" type="line" />
      <point x="78.2369" y="291.64" type="line" />
      <point x="44.2369" y="232.75" type="line" />
    </contour>
    <contour>
      <point x="87.7631" y="291.64" type="line" />
      <point x="53.7631" y="350.529" type="line" />
      <point x="44.2369" y="345.029" type="line" />
      <point x="78.2369" y="286.14" type="line" />
    </contour>
    <contour>
      <point x="53.7631" y="345.029" type="line" />
      <point x="87.7631" y="403.919" type="line" />
      <point x="78.2369" y="409.419" type="line" />
      <point x="44.2369" y="350.529" type="line" />
    </contour>
    <contour>
      <point x="87.7631" y="232.75" type="line" />
      <point x="53.7631" y="291.64" type="line" />
      <point x="44.2369" y="286.14" type="line" />
      <point x="78.2369" y="227.25" type="line" />
    </contour>
    <contour>
      <point x="53.7631" y="286.14" type="line" />
      <point x="87.7631" y="345.029" type="line" />
      <point x="78.2369" y="350.529" type="line" />
      <point x="44.2369" y="291.64" type="line" />
    </contour>
    <contour>
      <point x="87.7631" y="350.529" type="line" />
      <point x="53.7631" y="409.419" type="line" />
      <point x="44.2369" y="403.919" type="line" />
      <point x="78.2369" y="345.029" type="line" />
    </contour>
    <contour>
      <point x="312.5" y="455.5" type="line" />
      <point x="185.627" y="235.75" type="line" />
      <point x="439.373" y="235.75" type="line" />
    </contour>
    <contour>
      <point x="376.153" y="272.25" type="line" />
      <point x="248.847" y="272.25" type="line" />
      <point x="312.5" y="382.5" type="line" />
    </contour>
    <contour>
      <point x="312.5" y="162.5" type="line" />
      <point x="439.373" y="382.25" type="line" />
      <point x="185.627" y="382.25" type="line" />
    </contour>
    <contour>
      <point x="248.847" y="345.75" type="line" />
      <point x="376.153" y="345.75" type="line" />
      <point x="312.5" y="235.5" type="line" />
    </contour>
    <contour>
      <point x="107" y="314.5" type="line" />
      <point x="543" y="314.5" type="line" />
      <point x="543" y="303.5" type="line" />
      <point x="107" y="303.5" type="line" />
    </contour>
    <contour>
      <point x="319.5" y="55" type="line" />
      <point x="319.5" y="563" type="line" />
      <point x="330.5" y="563" type="line" />
      <point x="330.5" y="55" type="line" />
    </contour>
  </outline>
</glyph>
<glyph name="acedit.apl.m5s2o2d3" format="2">
  <advance width="618" />
  <unicode hex="E273" />
  <outline>
    <contour>
      <point x="74" y="538" type="line" />
      <point x="564" y="538" type="line" />
      <point x="564" y="566" type="line" />
      <point x="74" y="566" type="line" />
    </contour>
    <contour>
      <point x="297.124" y="540.674" type="line" />
      <point x="340.876" y="540.674" type="line" />
      <point x="354.396" y="582.284" type="line" />
      <point x="319" y="608" type="line" />
      <point x="283.604" y="582.284" type="line" />
    </contour>
    <contour>
      <point x="310.234" y="573.631" type="line" />
      <point x="319" y="580" type="line" />
      <point x="327.766" y="573.631" type="line" />
      <point x="324.418" y="563.326" type="line" />
      <point x="313.582" y="563.326" type="line" />
    </contour>
    <contour>
      <point x="53.7631" y="227.25" type="line" />
      <point x="87.7631" y="286.14" type="line" />
      <point x="78.2369" y="291.64" type="line" />
      <point x="44.2369" y="232.75" type="line" />
    </contour>
    <contour>
      <point x="87.7631" y="291.64" type="line" />
      <point x="53.7631" y="350.529" type="line" />
      <point x="44.2369" y="345.029" type="line" />
      <point x="78.2369" y="286.14" type="line" />
    </contour>
    <contour>
      <point x="53.7631" y="345.029" type="line" />
      <point x="87.7631" y="403.919" type="line" />
      <point x="78.2369" y="409.419" type="line" />
      <point x="44.2369" y="350.529" type="line" />
    </contour>
    <contour>
      <point x="87.7631" y="232.75" type="line" />
      <point x="53.7631" y="291.64" type="line" />
      <point x="44.2369" y="286.14" type="line" />
      <point x="78.2369" y="227.25" type="line" />
    </contour>
    <contour>
      <point x="53.7631" y="286.14" type="line" />
      <point x="87.7631" y="345.029" type="line" />
      <point x="78.2369" y="350.529" type="line" />
      <point x="44.2369" y="291.64" type="line" />
    </contour>
    <contour>
      <point x="87.7631" y="350.529" type="line" />
      <point x="53.7631" y="409.419" type="line" />
      <point x="44.2369" y="403.919" type="line" />
      <point x="78.2369" y="345.029" type="line" />
    </contour>
    <contour>
      <point x="303.376" y="196" type="line" />
      <point x="234.094" y="316" type="line" />
      <point x="258.342" y="330" type="line" />
      <point x="327.624" y="210" type="line" />
    </contour>
    <contour>
      <point x="303.376" y="210" type="line" />
      <point x="372.658" y="330" type="line" />
      <point x="396.906" y="316" type="line" />
      <point x="327.624" y="196" type="line" />
    </contour>
    <contour>
      <point x="303.376" y="276" type="line" />
      <point x="245.641" y="376" type="line" />
      <point x="269.889" y="390" type="line" />
      <point x="327.624" y="290" type="line" />
    </contour>
    <contour>
      <point x="303.376" y="290" type="line" />
      <point x="361.111" y="390" type="line" />
      <point x="385.359" y="376" type="line" />
      <point x="327.624" y="276" type="line" />
    </contour>
    <contour>
      <point x="303.376" y="346" type="line" />
      <point x="257.188" y="426" type="line" />
      <point x="281.436" y="440" type="line" />
      <point x="327.624" y="360" type="line" />
    </contour>
    <contour>
      <point x="303.376" y="360" type="line" />
      <point x="349.564" y="440" type="line" />
      <point x="373.812" y="426" type="line" />
      <point x="327.624" y="346" type="line" />
    </contour>
    <contour>
      <point x="100.25" y="59.7631" type="line" />
      <point x="536.25" y="311.488" type="line" />
      <point x="541.75" y="301.962" type="line" />
      <point x="105.75" y="50.2369" type="line" />
    </contour>
  </outline>
</glyph>
<glyph name="acedit.apl.m5s2o4d1" format="2">
  <advance width="618" />
  <unicode hex="E27D" />
  <outline>
    <contour>
      <point x="74" y="538" type="line" />
      <point x="564" y="538" type="line" />
      <point x="564" y="566" type="line" />
      <point x="74" y="566" type="line" />
    </contour>
    <contour>
      <point x="297.124" y="540.674" type="line" />
      <point x="340.876" y="540.674" type="line" />
      <point x="354.396" y="582.284" type="line" />
      <point x="319" y="608" type="line" />
      <point x="283.604" y="582.284" type="line" />
    </contour>
    <contour>
      <point x="310.234" y="573.631" type="line" />
      <point x="319" y="580" type="line" />
      <point x="327.766" y="573.631" type="line" />
      <point x="324.418" y="563.326" type="line" />
      <point x="313.582" y="563.326" type="line" />
    </contour>
    <contour>
      <point x="53.7631" y="227.25" type="line" />
      <point x="87.7631" y="286.14" type="line" />
      <point x="78.2369" y="291.64" type="line" />
      <point x="44.2369" y="232.75" type="line" />
    </contour>
    <contour>
      <point x="87.7631" y="291.64" type="line" />
      <point x="53.7631" y="350.529" type="line" />
      <point x="44.2369" y="345.029" type="line" />
      <point x="78.2369" y="286.14" type="line" />
    </contour>
    <contour>
      <point x="53.7631" y="345.029" type="line" />
      <point x="87.7631" y="403.919" type="line" />
      <point x="78.2369" y="409.419" type="line" />
      <point x="44.2369" y="350.529" type="line" />
    </contour>
    <contour>
      <point x="87.7631" y="232.75" type="line" />
      <point x="53.7631" y="291.64" type="line" />
      <point x="44.2369" y="286.14" type="line" />
      <point x="78.2369" y="227.25" type="line" />
    </contour>
    <contour>
      <point x="53.7631" y="286.14" type="line" />
      <point x="87.7631" y="345.029" type="line" />
      <point x="78.2369" y="350.529" type="line" />
      <point x="44.2369" y="291.64" type="line" />
    </contour>
    <contour>
      <point x="87.7631" y="350.529" type="line" />
      <point x="53.7631" y="409.419" type="line" />
      <point x="44.2369" y="403.919" type="line" />
      <point x="78.2369" y="345.029" type="line" />
    </contour>
    <contour>
      <point x="285" y="459" type="line" />
      <point x="285" y="345.5" type="line" />
      <point x="171.5" y="345.5" type="line" />
      <point x="171.5" y="272.5" type="line" />
      <point x="285" y="272.5" type="line" />
      <point x="285" y="159" type="line" />
      <point x="358" y="159" type="line" />
      <point x="358" y="272.5" type="line" />
      <point x="471.5" y="272.5" type="line" />
      <point x="471.5" y="345.5" type="line" />
      <point x="358" y="345.5" type="line" />
      <point x="358" y="459" type="line" />
    </contour>
    <contour>
      <point x="95" y="314.5" type="line" />
      <point x="531" y="314.5" type="line" />
      <point x="531" y="303.5" type="line" />
      <point x="95" y="303.5" type="line" />
    </contour>
  </outline>
</glyph>
<glyph name="acedit.apl.m6s0o0d2" format="2">
  <advance width="618" />
  <unicode hex="E28A" />
  <outline>
    <contour>
      <point x="76" y="538" type="line" />
      <point x="566" y="538" type="line" />
      <point x="566" y="566" type="line" />
      <point x="76" y="566" type="line" />
    </contour>
    <contour>
      <point x="356" y="573" type="line" />
      <point x="338.5" y="603.311" type="line" />
      <point x="303.5" y="603.311" type="line" />
      <point x="286" y="573" type="line" />
      <point x="303.5" y="542.689" type="line" />
      <point x="338.5" y="542.689" type="line" />
    </contour>
    <contour>
      <point x="324.5" y="566.938" type="line" />
      <point x="317.5" y="566.938" type="line" />
      <point x="314" y="573" type="line" />
      <point x="317.5" y="579.062" type="line" />
      <point x="324.5" y="579.062" type="line" />
      <point x="328" y="573" type="line" />
    </contour>
    <contour>
      <point x="80" y="220" type="line" />
      <point x="80" y="398" type="line" />
      <point x="52" y="398" type="line" />
      <point x="52" y="220" type="line" />
    </contour>
    <contour>
      <point x="445.033" y="387.25" type="line" />
      <point x="309.5" y="465.5" type="line" />
      <point x="173.967" y="387.25" type="line" />
      <point x="173.967" y="230.75" type="line" />
      <point x="309.5" y="152.5" type="line" />
      <point x="445.033" y="230.75" type="line" />
    </contour>
    <contour>
      <point x="381.813" y="267.25" type="line" />
      <point x="309.5" y="225.5" type="line" />
      <point x="237.187" y="267.25" type="line" />
      <point x="237.187" y="350.75" type="line" />
      <point x="309.5" y="392.5" type="line" />
      <point x="381.813" y="350.75" type="line" />
    </contour>
    <contour>
      <point x="309.5" y="329" type="line" />
      <point x="292.18" y="299" type="line" />
      <point x="326.82" y="299" type="line" />
    </contour>
    <contour>
      <point x="99" y="211.5" type="line" />
      <point x="535" y="211.5" type="line" />
      <point x="535" y="200.5" type="line" />
      <point x="99" y="200.5" type="line" />
    </contour>
    <contour>
      <point x="99" y="417.5" type="line" />
      <point x="535" y="417.5" type="line" />
      <point x="535" y="406.5" type="line" />
      <point x="99" y="406.5" type="line" />
    </contour>
  </outline>
</glyph>
<glyph name="acedit.apl.m6s0o0d5" format="2">
  <advance width="618" />
  <unicode hex="E28D" />
  <outline>
    <contour>
      <point x="76" y="538" type="line" />
      <point x="566" y="538" type="line" />
      <point x="566" y="566" type="line" />
      <point x="76" y="566" type="line" />
    </contour>
    <contour>
      <point x="356" y="573" type="line" />
      <point x="338.5" y="603.311" type="line" />
      <point x="303.5" y="603.311" type="line" />
      <point x="286" y="573" type="line" />
      <point x="303.5" y="542.689" type="line" />
      <point x="338.5" y="542.689" type="line" />
    </contour>
    <contour>
      <point x="324.5" y="566.938" type="line" />
      <point x="317.5" y="566.938" type="line" />
      <point x="314" y="573" type="line" />
      <point x="317.5" y="579.062" type="line" />
      <point x="324.5" y="579.062" type="line" />
      <point x="328" y="573" type="line" />
    </contour>
    <contour>
      <point x="80" y="220" type="line" />
      <point x="80" y="398" type="line" />
      <point x="52" y="398" type="line" />
      <point x="52" y="220" type="line" />
    </contour>
    <contour>
      <point x="445.033" y="387.25" type="line" />
      <point x="309.5" y="465.5" type="line" />
      <point x="173.967" y="387.25" type="line" />
      <point x="173.967" y="230.75" type="line" />
      <point x="309.5" y="152.5" type="line" />
      <point x="445.033" y="230.75" type="line" />
    </contour>
    <contour>
      <point x="381.813" y="267.25" type="line" />
      <point x="309.5" y="225.5" type="line" />
      <point x="237.187" y="267.25" type="line" />
      <point x="237.187" y="350.75" type="line" />
      <point x="309.5" y="392.5" type="line" />
      <point x="381.813" y="350.75" type="line" />
    </contour>
    <contour>
      <point x="309.5" y="329" type="line" />
      <point x="292.18" y="299" type="line" />
      <point x="326.82" y="299" type="line" />
    </contour>
    <contour>
      <point x="111" y="314.5" type="line" />
      <point x="547" y="314.5" type="line" />
      <point x="547" y="303.5" type="line" />
      <point x="111" y="303.5" type="line" />
    </contour>
    <contour>
      <point x="224.237" y="138.545" type="line" />
      <point x="424.237" y="484.955" type="line" />
      <point x="433.763" y="479.455" type="line" />
      <point x="233.763" y="133.045" type="line" />
    </contour>
    <contour>
      <point x="424.237" y="133.045" type="line" />
      <point x="224.237" y="479.455" type="line" />
      <point x="233.763" y="484.955" type="line" />
      <point x="433.763" y="138.545" type="line" />
    </contour>
  </outline>
</glyph>
<glyph name="acedit.apl.m6s0o1d3" format="2">
  <advance width="618" />
  <unicode hex="E291" />
  <outline>
    <contour>
      <point x="76" y="538" type="line" />
      <point x="566" y="538" type="line" />
      <point x="566" y="566" type="line" />
      <point x="76" y="566" type="line" />
    </contour>
    <contour>
      <point x="356" y="573" type="line" />
      <point x="338.5" y="603.311" type="line" />
      <point x="303.5" y="603.311" type="line" />
      <point x="286" y="573" type="line" />
      <point x="303.5" y="542.689" type="line" />
      <point x="338.5" y="542.689" type="line" />
    </contour>
    <contour>
      <point x="324.5" y="566.938" type="line" />
      <point x="317.5" y="566.938" type="line" />
      <point x="314" y="573" type="line" />
      <point x="317.5" y="579.062" type="line" />
      <point x="324.5" y="579.062" type="line" />
      <point x="328" y="573" type="line" />
    </contour>
    <contour>
      <point x="80" y="220" type="line" />
      <point x="80" y="398" type="line" />
      <point x="52" y="398" type="line" />
      <point x="52" y="220" type="line" />
    </contour>
    <contour>
      <point x="312.5" y="455.5" type="line" />
      <point x="185.627" y="235.75" type="line" />
      <point x="439.373" y="235.75" type="line" />
    </contour>
    <contour>
      <point x="376.153" y="272.25" type="line" />
      <point x="248.847" y="272.25" type="line" />
      <point x="312.5" y="382.5" type="line" />
    </contour>
    <contour>
      <point x="312.5" y="162.5" type="line" />
      <point x="439.373" y="382.25" type="line" />
      <point x="185.627" y="382.25" type="line" />
    </contour>
    <contour>
      <point x="248.847" y="345.75" type="line" />
      <point x="376.153" y="345.75" type="line" />
      <point x="312.5" y="235.5" type="line" />
    </contour>
    <contour>
      <point x="100.25" y="59.7631" type="line" />
      <point x="536.25" y="311.488" type="line" />
      <point x="541.75" y="301.962" type="line" />
      <point x="105.75" y="50.2369" type="line" />
    </contour>
  </outline>
</glyph>
<glyph name="acedit.apl.m6s0o2d2" format="2">
  <advance width="618" />
  <unicode hex="E296" />
  <outline>
    <contour>
      <point x="76" y="538" type="line" />
      <point x="566" y="538" type="line" />
      <point x="566" y="566" type="line" />
      <point x="76" y="566" type="line" />
    </contour>
    <contour>
      <point x="356" y="573" type="line" />
      <point x="338.5" y="603.311" type="line" />
      <point x="303.5" y="603.311" type="line" />
      <point x="286" y="573" type="line" />
      <point x="303.5" y="542.689" type="line" />
      <point x="338.5" y="542.689" type="line" />
    </contour>
    <contour>
      <point x="324.5" y="566.938" type="line" />
      <point x="317.5" y="566.938" type="line" />
      <point x="314" y="573" type="line" />
      <point x="317.5" y="579.062" type="line" />
      <point x="324.5" y="579.062" type="line" />
      <point x="328" y="573" type="line" />
    </contour>
    <contour>
      <point x="80" y="220" type="line" />
      <point x="80" y="398" type="line" />
      <point x="52" y="398" type="line" />
      <point x="52" y="220" type="line" />
    </contour>
    <contour>
      <point x="303.376" y="196" type="line" />
      <point x="234.094" y="316" type="line" />
      <point x="258.342" y="330" type="line" />
      <point x="327.624" y="210" type="line" />
    </contour>
    <contour>
      <point x="303.376" y="210" type="line" />
      <point x="372.658" y="330" type="line" />
      <point x="396.906" y="316" type="line" />
      <point x="327.624" y="196" type="line" />
    </contour>
    <contour>
      <point x="303.376" y="276" type="line" />
      <point x="245.641" y="376" type="line" />
      <point x="269.889" y="390" type="line" />
      <point x="327.624" y="290" type="line" />
    </contour>
    <contour>
      <point x="303.376" y="290" type="line" />
      <point x="361.111" y="390" type="line" />
      <point x="385.359" y="376" type="line" />
      <point x="327.624" y="276" type="line" />
    </contour>
    <contour>
      <point x="303.376" y="346" type="line" />
      <point x="257.188" y="426" type="line" />
      <point x="281.436" y="440" type="line" />
      <point x="327.624" y="360" type="line" />
    </contour>
    <contour>
      <point x="303.376" y="360" type="line" />
      <point x="349.564" y="440" type="line" />
      <point x="373.812" y="426" type="line" />
      <point x="327.624" y="346" type="line" />
    </contour>
    <contour>
      <point x="99" y="211.5" type="line" />
      <point x="535" y="211.5" type="line" />
      <point x="535" y="200.5" type="line" />
      <point x="99" y="200.5" type="line" />
    </contour>
    <contour>
      <point x="99" y="417.5" type="line" />
      <point x="535" y="417.5" type="line" />
      <point x="535" y="406.5" type="line" />
      <point x="99" y="406.5" type="line" />
    </contour>
  </outline>
</glyph>
<glyph name="acedit.apl.m6s0o3d3" format="2">
  <advance width="618" />
  <unicode hex="E29D" />
  <outline>
    <contour>
      <point x="76" y="538" type="line" />
      <point x="566" y="538" type="line" />
      <point x="566" y="566" type="line" />
      <point x="76" y="566" type="line" />
    </contour>
    <contour>
      <point x="356" y="573" type="line" />
      <point x="338.5" y="603.311" type="line" />
      <point x="303.5" y="603.311" type="line" />
      <point x="286" y="573" type="line" />
      <point x="303.5" y="542.689" type="line" />
      <point x="338.5" y="542.689" type="line" />
    </contour>
    <contour>
      <point x="324.5" y="566.938" type="line" />
      <point x="317.5" y="566.938" type="line" />
      <point x="314" y="573" type="line" />
      <point x="317.5" y="579.062" type="line" />
      <point x="324.5" y="579.062" type="line" />
      <point x="328" y="573" type="line" />
    </contour>
    <contour>
      <point x="80" y="220" type="line" />
      <point x="80" y="398" type="line" />
      <point x="52" y="398" type="line" />
      <point x="52" y="220" type="line" />
    </contour>
    <contour>
      <point x="194" y="345.5" type="line" />
      <point x="443" y="345.5" type="line" />
      <point x="443" y="272.5" type="line" />
      <point x="194" y="272.5" type="line" />
    </contour>
    <contour>
      <point x="340.151" y="425.5" type="line" />
      <point x="318.5" y="438" type="line" />
      <point x="296.849" y="425.5" type="line" />
      <point x="296.849" y="400.5" type="line" />
      <point x="318.5" y="388" type="line" />
      <point x="340.151" y="400.5" type="line" />
    </contour>
    <contour>
      <point x="340.151" y="217.5" type="line" />
      <point x="318.5" y="230" type="line" />
      <point x="296.849" y="217.5" type="line" />
      <point x="296.849" y="192.5" type="line" />
      <point x="318.5" y="180" type="line" />
      <point x="340.151" y="192.5" type="line" />
    </contour>
    <contour>
      <point x="100.25" y="59.7631" type="line" />
      <point x="536.25" y="311.488" type="line" />
      <point x="541.75" y="301.962" type="line" />
      <point x="105.75" y="50.2369" type="line" />
    </contour>
  </outline>
</glyph>
<glyph name="acedit.apl.m6s0o3d5" format="2">
  <advance width="618" />
  <unicode hex="E29F" />
  <outline>
    <contour>
      <point x="76" y="538" type="line" />
      <point x="566" y="538" type="line" />
      <point x="566" y="566" type="line" />
      <point x="76" y="566" type="line" />
    </contour>
    <contour>
      <point x="356" y="573" type="line" />
      <point x="338.5" y="603.311" type="line" />
      <point x="303.5" y="603.311" type="line" />
      <point x="286" y="573" type="line" />
      <point x="303.5" y="542.689" type="line" />
      <point x="338.5" y="542.689" type="line" />
    </contour>
    <contour>
      <point x="324.5" y="566.938" type="line" />
      <point x="317.5" y="566.938" type="line" />
      <point x="314" y="573" type="line" />
      <point x="317.5" y="579.062" type="line" />
      <point x="324.5" y="579.062" type="line" />
      <point x="328" y="573" type="line" />
    </contour>
    <contour>
      <point x="80" y="220" type="line" />
      <point x="80" y="398" type="line" />
      <point x="52" y="398" type="line" />
      <point x="52" y="220" type="line" />
    </contour>
    <contour>
      <point x="194" y="345.5" type="line" />
      <point x="443" y="345.5" type="line" />
      <point x="443" y="272.5" type="line" />
      <point x="194" y="272.5" type="line" />
    </contour>
    <contour>
      <point x="340.151" y="425.5" type="line" />
      <point x="318.5" y="438" type="line" />
      <point x="296.849" y="425.5" type="line" />
      <point x="296.849" y="400.5" type="line" />
      <point x="318.5" y="388" type="line" />
      <point x="340.151" y="400.5" type="line" />
    </contour>
    <contour>
      <point x="340.151" y="217.5" type="line" />
      <point x="318.5" y="230" type="line" />
      <point x="296.849" y="217.5" type="line" />
      <point x="296.849" y="192.5" type="line" />
      <point x="318.5" y="180" type="line" />
      <point x="340.151" y="192.5" type="line" />
    </contour>
    <contour>
      <point x="111" y="314.5" type="line" />
      <point x="547" y="314.5" type="line" />
      <point x="547" y="303.5" type="line" />
      <point x="111" y="303.5" type="line" />
    </contour>
    <contour>
      <point x="224.237" y="138.545" type="line" />
      <point x="424.237" y="484.955" type="line" />
      <point x="433.763" y="479.455" type="line" />
      <point x="233.763" y="133.045" type="line" />
    </contour>
    <contour>
      <point x="424.237" y="133.045" type="line" />
      <point x="224.237" y="479.455" type="line" />
      <point x="233.763" y="484.955" type="line" />
      <point x="433.763" y="138.545" type="line" />
    </contour>
  </outline>
</glyph>
<glyph name="acedit.apl.m6s0o5d5" format="2">
  <advance width="618" />
  <unicode hex="E2AB" />
  <outline>
    <contour>
      <point x="76" y="538" type="line" />
      <point x="566" y="538" type="line" />
      <point x="566" y="566" type="line" />
      <point x="76" y="566" type="line" />
    </contour>
    <contour>
      <point x="356" y="573" type="line" />
      <point x="338.5" y="603.311" type="line" />
      <point x="303.5" y="603.311" type="line" />
      <point x="286" y="573" type="line" />
      <point x="303.5" y="542.689" type="line" />
      <point x="338.5" y="542.689" type="line" />
    </contour>
    <contour>
      <point x="324.5" y="566.938" type="line" />
      <point x="317.5" y="566.938" type="line" />
      <point x="314" y="573" type="line" />
      <point x="317.5" y="579.062" type="line" />
      <point x="324.5" y="579.062" type="line" />
      <point x="328" y="573" type="line" />
    </contour>
    <contour>
      <point x="80" y="220" type="line" />
      <point x="80" y="398" type="line" />
      <point x="52" y="398" type="line" />
      <point x="52" y="220" type="line" />
    </contour>
    <contour>
      <point x="345.954" y="399.471" type="line" />
      <point x="231.827" y="316.553" type="line" />
      <point x="188.919" y="375.611" type="line" />
      <point x="303.046" y="458.529" type="line" />
    </contour>
    <contour>
      <point x="245.087" y="357.361" type="line" />
      <point x="288.679" y="223.197" type="line" />
      <point x="219.252" y="200.639" type="line" />
      <point x="175.66" y="334.803" type="line" />
    </contour>
    <contour>
      <point x="253.966" y="248.418" type="line" />
      <point x="395.034" y="248.418" type="line" />
      <point x="395.034" y="175.418" type="line" />
      <point x="253.966" y="175.418" type="line" />
    </contour>
    <contour>
      <point x="360.321" y="223.197" type="line" />
      <point x="403.913" y="357.361" type="line" />
      <point x="473.34" y="334.803" type="line" />
      <point x="429.748" y="200.639" type="line" />
    </contour>
    <contour>
      <point x="327.733" y="433.45" type="line" />
      <point x="343.913" y="421.694" type="line" />
      <point x="337.447" y="412.795" type="line" />
      <point x="321.267" y="424.55" type="line" />
    </contour>
    <contour>
      <point x="435.394" y="341.632" type="line" />
      <point x="419.214" y="353.388" type="line" />
      <point x="425.679" y="362.287" type="line" />
      <point x="441.86" y="350.532" type="line" />
    </contour>
    <contour>
      <point x="111" y="314.5" type="line" />
      <point x="547" y="314.5" type="line" />
      <point x="547" y="303.5" type="line" />
      <point x="111" y="303.5" type="line" />
    </contour>
    <contour>
      <point x="224.237" y="138.545" type="line" />
      <point x="424.237" y="484.955" type="line" />
      <point x="433.763" y="479.455" type="line" />
      <point x="233.763" y="133.045" type="line" />
    </contour>
    <contour>
      <point x="424.237" y="133.045" type="line" />
      <point x="224.237" y="479.455" type="line" />
      <point x="233.763" y="484.955" type="line" />
      <point x="433.763" y="138.545" type="line" />
    </contour>
  </outline>
</glyph>
<glyph name="acedit.apl.m6s1o0d1" format="2">
  <advance width="618" />
  <unicode hex="E2AD" />
  <outline>
    <contour>
      <point x="76" y="538" type="line" />
      <point x="566" y="538" type="line" />
      <point x="566" y="566" type="line" />
      <point x="76" y="566" type="line" />
    </contour>
    <contour>
      <point x="356" y="573" type="line" />
      <point x="338.5" y="603.311" type="line" />
      <point x="303.5" y="603.311" type="line" />
      <point x="286" y="573" type="line" />
      <point x="303.5" y="542.689" type="line" />
      <point x="338.5" y="542.689" type="line" />
    </contour>
    <contour>
      <point x="324.5" y="566.938" type="line" />
      <point x="317.5" y="566.938" type="line" />
      <point x="314" y="573" type="line" />
      <point x="317.5" y="579.062" type="line" />
      <point x="324.5" y="579.062" type="line" />
      <point x="328" y="573" type="line" />
    </contour>
    <contour>
      <point x="61.1244" y="218" type="line" />
      <point x="95.1244" y="276.89" type="line" />
      <point x="70.8756" y="290.89" type="line" />
      <point x="36.8756" y="232" type="line" />
    </contour>
    <contour>
      <point x="95.1244" y="290.89" type="line" />
      <point x="61.1244" y="349.779" type="line" />
      <point x="36.8756" y="335.779" type="line" />
      <point x="70.8756" y="276.89" type="line" />
    </contour>
    <contour>
      <point x="61.1244" y="335.779" type="line" />
      <point x="95.1244" y="394.669" type="line" />
      <point x="70.8756" y="408.669" type="line" />
      <point x="36.8756" y="349.779" type="line" />
    </contour>
    <contour>
      <point x="445.033" y="387.25" type="line" />
      <point x="309.5" y="465.5" type="line" />
      <point x="173.967" y="387.25" type="line" />
      <point x="173.967" y="230.75" type="line" />
      <point x="309.5" y="152.5" type="line" />
      <point x="445.033" y="230.75" type="line" />
    </contour>
    <contour>
      <point x="381.813" y="267.25" type="line" />
      <point x="309.5" y="225.5" type="line" />
      <point x="237.187" y="267.25" type="line" />
      <point x="237.187" y="350.75" type="line" />
      <point x="309.5" y="392.5" type="line" />
      <point x="381.813" y="350.75" type="line" />
    </contour>
    <contour>
      <point x="309.5" y="329" type="line" />
      <point x="292.18" y="299" type="line" />
      <point x="326.82" y="299" type="line" />
    </contour>
    <contour>
      <point x="95" y="314.5" type="line" />
      <point x="531" y="314.5" type="line" />
      <point x="531" y="303.5" type="line" />
      <point x="95" y="303.5" type="line" />
    </contour>
  </outline>
</glyph>
<glyph name="acedit.apl.m6s2o1d0" format="2">
  <advance width="618" />
  <unicode hex="E2D6" />
  <outline>
    <contour>
      <point x="76" y="538" type="line" />
      <point x="566" y="538" type="line" />
      <point x="566" y="566" type="line" />
      <point x="76" y="566" type="line" />
    </contour>
    <contour>
      <point x="356" y="573" type="line" />
      <point x="338.5" y="603.311" type="line" />
      <point x="303.5" y="603.311" type="line" />
      <point x="286" y="573" type="line" />
      <point x="303.5" y="542.689" type="line" />
      <point x="338.5" y="542.689" type="line" />
    </contour>
    <contour>
      <point x="324.5" y="566.938" type="line" />
      <point x="317.5" y="566.938" type="line" />
      <point x="314" y="573" type="line" />
      <point x="317.5" y="579.062" type="line" />
      <point x="324.5" y="579.062" type="line" />
      <point x="328" y="573" type="line" />
    </contour>
    <contour>
      <point x="53.7631" y="227.25" type="line" />
      <point x="87.7631" y="286.14" type="line" />
      <point x="78.2369" y="291.64" type="line" />
      <point x="44.2369" y="232.75" type="line" />
    </contour>
    <contour>
      <point x="87.7631" y="291.64" type="line" />
      <point x="53.7631" y="350.529" type="line" />
      <point x="44.2369" y="345.029" type="line" />
      <point x="78.2369" y="286.14" type="line" />
    </contour>
    <contour>
      <point x="53.7631" y="345.029" type="line" />
      <point x="87.7631" y="403.919" type="line" />
      <point x="78.2369" y="409.419" type="line" />
      <point x="44.2369" y="350.529" type="line" />
    </contour>
    <contour>
      <point x="87.7631" y="232.75" type="line" />
      <point x="53.7631" y="291.64" type="line" />
      <point x="44.2369" y="286.14" type="line" />
      <point x="78.2369" y="227.25" type="line" />
    </contour>
    <contour>
      <point x="53.7631" y="286.14" type="line" />
      <point x="87.7631" y="345.029" type="line" />
      <point x="78.2369" y="350.529" type="line" />
      <point x="44.2369" y="291.64" type="line" />
    </contour>
    <contour>
      <point x="87.7631" y="350.529" type="line" />
      <point x="53.7631" y="409.419" type="line" />
      <point x="44.2369" y="403.919" type="line" />
      <point x="78.2369" y="345.029" type="line" />
    </contour>
    <contour>
      <point x="312.5" y="455.5" type="line" />
      <point x="185.627" y="235.75" type="line" />
      <point x="439.373" y="235.75" type="line" />
    </contour>
    <contour>
      <point x="376.153" y="272.25" type="line" />
      <point x="248.847" y="272.25" type="line" />
      <point x="312.5" y="382.5" type="line" />
    </contour>
    <contour>
      <point x="312.5" y="162.5" type="line" />
      <point x="439.373" y="382.25" type="line" />
      <point x="185.627" y="382.25" type="line" />
    </contour>
    <contour>
      <point x="248.847" y="345.75" type="line" />
      <point x="376.153" y="345.75" type="line" />
      <point x="312.5" y="235.5" type="line" />
    </contour>
  </outline>
</glyph>
<glyph name="acedit.apl.m6s2o1d3" format="2">
  <advance width="618" />
  <unicode hex="E2D9" />
  <outline>
    <contour>
      <point x="76" y="538" type="line" />
      <point x="566" y="538" type="line" />
      <point x="566" y="566" type="line" />
      <point x="76" y="566" type="line" />
    </contour>
    <contour>
      <point x="356" y="573" type="line" />
      <point x="338.5" y="603.311" type="line" />
      <point x="303.5" y="603.311" type="line" />
      <point x="286" y="573" type="line" />
      <point x="303.5" y="542.689" type="line" />
      <point x="338.5" y="542.689" type="line" />
    </contour>
    <contour>
      <point x="324.5" y="566.938" type="line" />
      <point x="317.5" y="566.938" type="line" />
      <point x="314" y="573" type="line" />
      <point x="317.5" y="579.062" type="line" />
      <point x="324.5" y="579.062" type="line" />
      <point x="328" y="573" type="line" />
    </contour>
    <contour>
      <point x="53.7631" y="227.25" type="line" />
      <point x="87.7631" y="286.14" type="line" />
      <point x="78.2369" y="291.64" type="line" />
      <point x="44.2369" y="232.75" type="line" />
    </contour>
    <contour>
      <point x="87.7631" y="291.64" type="line" />
      <point x="53.7631" y="350.529" type="line" />
      <point x="44.2369" y="345.029" type="line" />
      <point x="78.2369" y="286.14" type="line" />
    </contour>
    <contour>
      <point x="53.7631" y="345.029" type="line" />
      <point x="87.7631" y="403.919" type="line" />
      <point x="78.2369" y="409.419" type="line" />
      <point x="44.2369" y="350.529" type="line" />
    </contour>
    <contour>
      <point x="87.7631" y="232.75" type="line" />
      <point x="53.7631" y="291.64" type="line" />
      <point x="44.2369" y="286.14" type="line" />
      <point x="78.2369" y="227.25" type="line" />
    </contour>
    <contour>
      <point x="53.7631" y="286.14" type="line" />
      <point x="87.7631" y="345.029" type="line" />
      <point x="78.2369" y="350.529" type="line" />
      <point x="44.2369" y="291.64" type="line" />
    </contour>
    <contour>
      <point x="87.7631" y="350.529" type="line" />
      <point x="53.7631" y="409.419" type="line" />
      <point x="44.2369" y="403.919" type="line" />
      <point x="78.2369" y="345.029" type="line" />
    </contour>
    <contour>
      <point x="312.5" y="455.5" type="line" />
      <point x="185.627" y="235.75" type="line" />
      <point x="439.373" y="235.75" type="line" />
    </contour>
    <contour>
      <point x="376.153" y="272.25" type="line" />
      <point x="248.847" y="272.25" type="line" />
      <point x="312.5" y="382.5" type="line" />
    </contour>
    <contour>
      <point x="312.5" y="162.5" type="line" />
      <point x="439.373" y="382.25" type="line" />
      <point x="185.627" y="382.25" type="line" />
    </contour>
    <contour>
      <point x="248.847" y="345.75" type="line" />
      <point x="376.153" y="345.75" type="line" />
      <point x="312.5" y="235.5" type="line" />
    </contour>
    <contour>
      <point x="100.25" y="59.7631" type="line" />
      <point x="536.25" y="311.488" type="line" />
      <point x="541.75" y="301.962" type="line" />
      <point x="105.75" y="50.2369" type="line" />
    </contour>
  </outline>
</glyph>
<glyph name="acedit.apl.m6s2o1d5" format="2">
  <advance width="618" />
  <unicode hex="E2DB" />
  <outline>
    <contour>
      <point x="76" y="538" type="line" />
      <point x="566" y="538" type="line" />
      <point x="566" y="566" type="line" />
      <point x="76" y="566" type="line" />
    </contour>
    <contour>
      <point x="356" y="573" type="line" />
      <point x="338.5" y="603.311" type="line" />
      <point x="303.5" y="603.311" type="line" />
      <point x="286" y="573" type="line" />
      <point x="303.5" y="542.689" type="line" />
      <point x="338.5" y="542.689" type="line" />
    </contour>
    <contour>
      <point x="324.5" y="566.938" type="line" />
      <point x="317.5" y="566.938" type="line" />
      <point x="314" y="573" type="line" />
      <point x="317.5" y="579.062" type="line" />
      <point x="324.5" y="579.062" type="line" />
      <point x="328" y="573" type="line" />
    </contour>
    <contour>
      <point x="53.7631" y="227.25" type="line" />
      <point x="87.7631" y="286.14" type="line" />
      <point x="78.2369" y="291.64" type="line" />
      <point x="44.2369" y="232.75" type="line" />
    </contour>
    <contour>
      <point x="87.7631" y="291.64" type="line" />
      <point x="53.7631" y="350.529" type="line" />
      <point x="44.2369" y="345.029" type="line" />
      <point x="78.2369" y="286.14" type="line" />
    </contour>
    <contour>
      <point x="53.7631" y="345.029" type="line" />
      <point x="87.7631" y="403.919" type="line" />
      <point x="78.2369" y="409.419" type="line" />
      <point x="44.2369" y="350.529" type="line" />
    </contour>
    <contour>
      <point x="87.7631" y="232.75" type="line" />
      <point x="53.7631" y="291.64" type="line" />
      <point x="44.2369" y="286.14" type="line" />
      <point x="78.2369" y="227.25" type="line" />
    </contour>
    <contour>
      <point x="53.7631" y="286.14" type="line" />
      <point x="87.7631" y="345.029" type="line" />
      <point x="78.2369" y="350.529" type="line" />
      <point x="44.2369" y="291.64" type="line" />
    </contour>
    <contour>
      <point x="87.7631" y="350.529" type="line" />
      <point x="53.7631" y="409.419" type="line" />
      <point x="44.2369" y="403.919" type="line" />
      <point x="78.2369" y="345.029" type="line" />
    </contour>
    <contour>
      <point x="312.5" y="455.5" type="line" />
      <point x="185.627" y="235.75" type="line" />
      <point x="439.373" y="235.75" type="line" />
    </contour>
    <contour>
      <point x="376.153" y="272.25" type="line" />
      <point x="248.847" y="272.25" type="line" />
      <point x="312.5" y="382.5" type="line" />
    </contour>
    <contour>
      <point x="312.5" y="162.5" type="line" />
      <point x="439.373" y="382.25" type="line" />
      <point x="185.627" y="382.25" type="line" />
    </contour>
    <contour>
      <point x="248.847" y="345.75" type="line" />
      <point x="376.153" y="345.75" type="line" />
      <point x="312.5" y="235.5" type="line" />
    </contour>
    <contour>
      <point x="111" y="314.5" type="line" />
      <point x="547" y="314.5" type="line" />
      <point x="547" y="303.5" type="line" />
      <point x="111" y="303.5" type="line" />
    </contour>
    <contour>
      <point x="224.237" y="138.545" type="line" />
      <point x="424.237" y="484.955" type="line" />
      <point x="433.763" y="479.455" type="line" />
      <point x="233.763" y="133.045" type="line" />
    </contour>
    <contour>
      <point x="424.237" y="133.045" type="line" />
      <point x="224.237" y="479.455" type="line" />
      <point x="233.763" y="484.955" type="line" />
      <point x="433.763" y="138.545" type="line" />
    </contour>
  </outline>
</glyph>
<glyph name="acedit.apl.m6s2o2d3" format="2">
  <advance width="618" />
  <unicode hex="E2DF" />
  <outline>
    <contour>
      <point x="76" y="538" type="line" />
      <point x="566" y="538" type="line" />
      <point x="566" y="566" type="line" />
      <point x="76" y="566" type="line" />
    </contour>
    <contour>
      <point x="356" y="573" type="line" />
      <point x="338.5" y="603.311" type="line" />
      <point x="303.5" y="603.311" type="line" />
      <point x="286" y="573" type="line" />
      <point x="303.5" y="542.689" type="line" />
      <point x="338.5" y="542.689" type="line" />
    </contour>
    <contour>
      <point x="324.5" y="566.938" type="line" />
      <point x="317.5" y="566.938" type="line" />
      <point x="314" y="573" type="line" />
      <point x="317.5" y="579.062" type="line" />
      <point x="324.5" y="579.062" type="line" />
      <point x="328" y="573" type="line" />
    </contour>
    <contour>
      <point x="53.7631" y="227.25" type="line" />
      <point x="87.7631" y="286.14" type="line" />
      <point x="78.2369" y="291.64" type="line" />
      <point x="44.2369" y="232.75" type="line" />
    </contour>
    <contour>
      <point x="87.7631" y="291.64" type="line" />
      <point x="53.7631" y="350.529" type="line" />
      <point x="44.2369" y="345.029" type="line" />
      <point x="78.2369" y="286.14" type="line" />
    </contour>
    <contour>
      <point x="53.7631" y="345.029" type="line" />
      <point x="87.7631" y="403.919" type="line" />
      <point x="78.2369" y="409.419" type="line" />
      <point x="44.2369" y="350.529" type="line" />
    </contour>
    <contour>
      <point x="87.7631" y="232.75" type="line" />
      <point x="53.7631" y="291.64" type="line" />
      <point x="44.2369" y="286.14" type="line" />
      <point x="78.2369" y="227.25" type="line" />
    </contour>
    <contour>
      <point x="53.7631" y="286.14" type="line" />
      <point x="87.7631" y="345.029" type="line" />
      <point x="78.2369" y="350.529" type="line" />
      <point x="44.2369" y="291.64" type="line" />
    </contour>
    <contour>
      <point x="87.7631" y="350.529" type="line" />
      <point x="53.7631" y="409.419" type="line" />
      <point x="44.2369" y="403.919" type="line" />
      <point x="78.2369" y="345.029" type="line" />
    </contour>
    <contour>
      <point x="303.376" y="196" type="line" />
      <point x="234.094" y="316" type="line" />
      <point x="258.342" y="330" type="line" />
      <point x="327.624" y="210" type="line" />
    </contour>
    <contour>
      <point x="303.376" y="210" type="line" />
      <point x="372.658" y="330" type="line" />
      <point x="396.906" y="316" type="line" />
      <point x="327.624" y="196" type="line" />
    </contour>
    <contour>
      <point x="303.376" y="276" type="line" />
      <point x="245.641" y="376" type="line" />
      <point x="269.889" y="390" type="line" />
      <point x="327.624" y="290" type="line" />
    </contour>
    <contour>
      <point x="303.376" y="290" type="line" />
      <point x="361.111" y="390" type="line" />
      <point x="385.359" y="376" type="line" />
      <point x="327.624" y="276" type="line" />
    </contour>
    <contour>
      <point x="303.376" y="346" type="line" />
      <point x="257.188" y="426" type="line" />
      <point x="281.436" y="440" type="line" />
      <point x="327.624" y="360" type="line" />
    </contour>
    <contour>
      <point x="303.376" y="360" type="line" />
      <point x="349.564" y="440" type="line" />
      <point x="373.812" y="426" type="line" />
      <point x="327.624" y="346" type="line" />
    </contour>
    <contour>
      <point x="100.25" y="59.7631" type="line" />
      <point x="536.25" y="311.488" type="line" />
      <point x="541.75" y="301.962" type="line" />
      <point x="105.75" y="50.2369" type="line" />
    </contour>
  </outline>
</glyph>
<glyph name="acedit.apl.m7s0o4d3" format="2">
  <advance width="618" />
  <unicode hex="E30F" />
  <outline>
    <contour>
      <point x="66.6738" y="590.711" type="line" />
      <point x="104.366" y="538.832" type="line" />
      <point x="127.019" y="555.289" type="line" />
      <point x="89.3262" y="607.168" type="line" />
    </contour>
    <contour>
      <point x="127.019" y="538.832" type="line" />
      <point x="164.711" y="590.711" type="line" />
      <point x="142.058" y="607.168" type="line" />
      <point x="104.366" y="555.289" type="line" />
    </contour>
    <contour>
      <point x="142.058" y="590.711" type="line" />
      <point x="179.751" y="538.832" type="line" />
      <point x="202.403" y="555.289" type="line" />
      <point x="164.711" y="607.168" type="line" />
    </contour>
    <contour>
      <point x="202.403" y="538.832" type="line" />
      <point x="240.095" y="590.711" type="line" />
      <point x="217.443" y="607.168" type="line" />
      <point x="179.751" y="555.289" type="line" />
    </contour>
    <contour>
      <point x="217.443" y="590.711" type="line" />
      <point x="255.135" y="538.832" type="line" />
      <point x="277.788" y="555.289" type="line" />
      <point x="240.095" y="607.168" type="line" />
    </contour>
    <contour>
      <point x="277.788" y="538.832" type="line" />
      <point x="315.48" y="590.711" type="line" />
      <point x="292.828" y="607.168" type="line" />
      <point x="255.135" y="555.289" type="line" />
    </contour>
    <contour>
      <point x="292.828" y="590.711" type="line" />
      <point x="330.52" y="538.832" type="line" />
      <point x="353.172" y="555.289" type="line" />
      <point x="315.48" y="607.168" type="line" />
    </contour>
    <contour>
      <point x="353.172" y="538.832" type="line" />
      <point x="390.865" y="590.711" type="line" />
      <point x="368.212" y="607.168" type="line" />
      <point x="330.52" y="555.289" type="line" />
    </contour>
    <contour>
      <point x="368.212" y="590.711" type="line" />
      <point x="405.904" y="538.832" type="line" />
      <point x="428.557" y="555.289" type="line" />
      <point x="390.865" y="607.168" type="line" />
    </contour>
    <contour>
      <point x="428.557" y="538.832" type="line" />
      <point x="466.249" y="590.711" type="line" />
      <point x="443.597" y="607.168" type="line" />
      <point x="405.904" y="555.289" type="line" />
    </contour>
    <contour>
      <point x="443.597" y="590.711" type="line" />
      <point x="481.289" y="538.832" type="line" />
      <point x="503.942" y="555.289" type="line" />
      <point x="466.249" y="607.168" type="line" />
    </contour>
    <contour>
      <point x="503.942" y="538.832" type="line" />
      <point x="541.634" y="590.711" type="line" />
      <point x="518.981" y="607.168" type="line" />
      <point x="481.289" y="555.289" type="line" />
    </contour>
    <contour>
      <point x="518.981" y="590.711" type="line" />
      <point x="556.674" y="538.832" type="line" />
      <point x="579.326" y="555.289" type="line" />
      <point x="541.634" y="607.168" type="line" />
    </contour>
    <contour>
      <point x="80" y="220" type="line" />
      <point x="80" y="398" type="line" />
      <point x="52" y="398" type="line" />
      <point x="52" y="220" type="line" />
    </contour>
    <contour>
      <point x="285" y="459" type="line" />
      <point x="285" y="345.5" type="line" />
      <point x="171.5" y="345.5" type="line" />
      <point x="171.5" y="272.5" type="line" />
      <point x="285" y="272.5" type="line" />
      <point x="285" y="159" type="line" />
      <point x="358" y="159" type="line" />
      <point x="358" y="272.5" type="line" />
      <point x="471.5" y="272.5" type="line" />
      <point x="471.5" y="345.5" type="line" />
      <point x="358" y="345.5" type="line" />
      <point x="358" y="459" type="line" />
    </contour>
    <contour>
      <point x="100.25" y="59.7631" type="line" />
      <point x="536.25" y="311.488" type="line" />
      <point x="541.75" y="301.962" type="line" />
      <point x="105.75" y="50.2369" type="line" />
    </contour>
  </outline>
</glyph>
<glyph name="acedit.apl.m7s1o0d3" format="2">
  <advance width="618" />
  <unicode hex="E31B" />
  <outline>
    <contour>
      <point x="66.6738" y="590.711" type="line" />
      <point x="104.366" y="538.832" type="line" />
      <point x="127.019" y="555.289" type="line" />
      <point x="89.3262" y="607.168" type="line" />
    </contour>
    <contour>
      <point x="127.019" y="538.832" type="line" />
      <point x="164.711" y="590.711" type="line" />
      <point x="142.058" y="607.168" type="line" />
      <point x="104.366" y="555.289" type="line" />
    </contour>
    <contour>
      <point x="142.058" y="590.711" type="line" />
      <point x="179.751" y="538.832" type="line" />
      <point x="202.403" y="555.289" type="line" />
      <point x="164.711" y="607.168" type="line" />
    </contour>
    <contour>
      <point x="202.403" y="538.832" type="line" />
      <point x="240.095" y="590.711" type="line" />
      <point x="217.443" y="607.168" type="line" />
      <point x="179.751" y="555.289" type="line" />
    </contour>
    <contour>
      <point x="217.443" y="590.711" type="line" />
      <point x="255.135" y="538.832" type="line" />
      <point x="277.788" y="555.289" type="line" />
      <point x="240.095" y="607.168" type="line" />
    </contour>
    <contour>
      <point x="277.788" y="538.832" type="line" />
      <point x="315.48" y="590.711" type="line" />
      <point x="292.828" y="607.168" type="line" />
      <point x="255.135" y="555.289" type="line" />
    </contour>
    <contour>
      <point x="292.828" y="590.711" type="line" />
      <point x="330.52" y="538.832" type="line" />
      <point x="353.172" y="555.289" type="line" />
      <point x="315.48" y="607.168" type="line" />
    </contour>
    <contour>
      <point x="353.172" y="538.832" type="line" />
      <point x="390.865" y="590.711" type="line" />
      <point x="368.212" y="607.168" type="line" />
      <point x="330.52" y="555.289" type="line" />
    </contour>
    <contour>
      <point x="368.212" y="590.711" type="line" />
      <point x="405.904" y="538.832" type="line" />
      <point x="428.557" y="555.289" type="line" />
      <point x="390.865" y="607.168" type="line" />
    </contour>
    <contour>
      <point x="428.557" y="538.832" type="line" />
      <point x="466.249" y="590.711" type="line" />
      <point x="443.597" y="607.168" type="line" />
      <point x="405.904" y="555.289" type="line" />
    </contour>
    <contour>
      <point x="443.597" y="590.711" type="line" />
      <point x="481.289" y="538.832" type="line" />
      <point x="503.942" y="555.289" type="line" />
      <point x="466.249" y="607.168" type="line" />
    </contour>
    <contour>
      <point x="503.942" y="538.832" type="line" />
      <point x="541.634" y="590.711" type="line" />
      <point x="518.981" y="607.168" type="line" />
      <point x="481.289" y="555.289" type="line" />
    </contour>
    <contour>
      <point x="518.981" y="590.711" type="line" />
      <point x="556.674" y="538.832" type="line" />
      <point x="579.326" y="555.289" type="line" />
      <point x="541.634" y="607.168" type="line" />
    </contour>
    <contour>
      <point x="61.1244" y="218" type="line" />
      <point x="95.1244" y="276.89" type="line" />
      <point x="70.8756" y="290.89" type="line" />
      <point x="36.8756" y="232" type="line" />
    </contour>
    <contour>
      <point x="95.1244" y="290.89" type="line" />
      <point x="61.1244" y="349.779" type="line" />
      <point x="36.8756" y="335.779" type="line" />
      <point x="70.8756" y="276.89" type="line" />
    </contour>
    <contour>
      <point x="61.1244" y="335.779" type="line" />
      <point x="95.1244" y="394.669" type="line" />
      <point x="70.8756" y="408.669" type="line" />
      <point x="36.8756" y="349.779" type="line" />
    </contour>
    <contour>
      <point x="445.033" y="387.25" type="line" />
      <point x="309.5" y="465.5" type="line" />
      <point x="173.967" y="387.25" type="line" />
      <point x="173.967" y="230.75" type="line" />
      <point x="309.5" y="152.5" type="line" />
      <point x="445.033" y="230.75" type="line" />
    </contour>
    <contour>
      <point x="381.813" y="267.25" type="line" />
      <point x="309.5" y="225.5" type="line" />
      <point x="237.187" y="267.25" type="line" />
      <point x="237.187" y="350.75" type="line" />
      <point x="309.5" y="392.5" type="line" />
      <point x="381.813" y="350.75" type="line" />
    </contour>
    <contour>
      <point x="309.5" y="329" type="line" />
      <point x="292.18" y="299" type="line" />
      <point x="326.82" y="299" type="line" />
    </contour>
    <contour>
      <point x="100.25" y="59.7631" type="line" />
      <point x="536.25" y="311.488" type="line" />
      <point x="541.75" y="301.962" type="line" />
      <point x="105.75" y="50.2369" type="line" />
    </contour>
  </outline>
</glyph>
<glyph name="acedit.apl.m7s1o1d0" format="2">
  <advance width="618" />
  <unicode hex="E31E" />
  <outline>
    <contour>
      <point x="66.6738" y="590.711" type="line" />
      <point x="104.366" y="538.832" type="line" />
      <point x="127.019" y="555.289" type="line" />
      <point x="89.3262" y="607.168" type="line" />
    </contour>
    <contour>
      <point x="127.019" y="538.832" type="line" />
      <point x="164.711" y="590.711" type="line" />
      <point x="142.058" y="607.168" type="line" />
      <point x="104.366" y="555.289" type="line" />
    </contour>
    <contour>
      <point x="142.058" y="590.711" type="line" />
      <point x="179.751" y="538.832" type="line" />
      <point x="202.403" y="555.289" type="line" />
      <point x="164.711" y="607.168" type="line" />
    </contour>
    <contour>
      <point x="202.403" y="538.832" type="line" />
      <point x="240.095" y="590.711" type="line" />
      <point x="217.443" y="607.168" type="line" />
      <point x="179.751" y="555.289" type="line" />
    </contour>
    <contour>
      <point x="217.443" y="590.711" type="line" />
      <point x="255.135" y="538.832" type="line" />
      <point x="277.788" y="555.289" type="line" />
      <point x="240.095" y="607.168" type="line" />
    </contour>
    <contour>
      <point x="277.788" y="538.832" type="line" />
      <point x="315.48" y="590.711" type="line" />
      <point x="292.828" y="607.168" type="line" />
      <point x="255.135" y="555.289" type="line" />
    </contour>
    <contour>
      <point x="292.828" y="590.711" type="line" />
      <point x="330.52" y="538.832" type="line" />
      <point x="353.172" y="555.289" type="line" />
      <point x="315.48" y="607.168" type="line" />
    </contour>
    <contour>
      <point x="353.172" y="538.832" type="line" />
      <point x="390.865" y="590.711" type="line" />
      <point x="368.212" y="607.168" type="line" />
      <point x="330.52" y="555.289" type="line" />
    </contour>
    <contour>
      <point x="368.212" y="590.711" type="line" />
      <point x="405.904" y="538.832" type="line" />
      <point x="428.557" y="555.289" type="line" />
      <point x="390.865" y="607.168" type="line" />
    </contour>
    <contour>
      <point x="428.557" y="538.832" type="line" />
      <point x="466.249" y="590.711" type="line" />
      <point x="443.597" y="607.168" type="line" />
      <point x="405.904" y="555.289" type="line" />
    </contour>
    <contour>
      <point x="443.597" y="590.711" type="line" />
      <point x="481.289" y="538.832" type="line" />
      <point x="503.942" y="555.289" type="line" />
      <point x="466.249" y="607.168" type="line" />
    </contour>
    <contour>
      <point x="503.942" y="538.832" type="line" />
      <point x="541.634" y="590.711" type="line" />
      <point x="518.981" y="607.168" type="line" />
      <point x="481.289" y="555.289" type="line" />
    </contour>
    <contour>
      <point x="518.981" y="590.711" type="line" />
      <point x="556.674" y="538.832" type="line" />
      <point x="579.326" y="555.289" type="line" />
      <point x="541.634" y="607.168" type="line" />
    </contour>
    <contour>
      <point x="61.1244" y="218" type="line" />
      <point x="95.1244" y="276.89" type="line" />
      <point x="70.8756" y="290.89" type="line" />
      <point x="36.8756" y="232" type="line" />
    </contour>
    <contour>
      <point x="95.1244" y="290.89" type="line" />
      <point x="61.1244" y="349.779" type="line" />
      <point x="36.8756" y="335.779" type="line" />
      <point x="70.8756" y="276.89" type="line" />
    </contour>
    <contour>
      <point x="61.1244" y="335.779" type="line" />
      <point x="95.1244" y="394.669" type="line" />
      <point x="70.8756" y="408.669" type="line" />
      <point x="36.8756" y="349.779" type="line" />
    </contour>
    <contour>
      <point x="312.5" y="455.5" type="line" />
      <point x="185.627" y="235.75" type="line" />
      <point x="439.373" y="235.75" type="line" />
    </contour>
    <contour>
      <point x="376.153" y="272.25" type="line" />
      <point x="248.847" y="272.25" type="line" />
      <point x="312.5" y="382.5" type="line" />
    </contour>
    <contour>
      <point x="312.5" y="162.5" type="line" />
      <point x="439.373" y="382.25" type="line" />
      <point x="185.627" y="382.25" type="line" />
    </contour>
    <contour>
      <point x="248.847" y="345.75" type="line" />
      <point x="376.153" y="345.75" type="line" />
      <point x="312.5" y="235.5" type="line" />
    </contour>
  </outline>
</glyph>
<glyph name="acedit.apl.m7s1o3d3" format="2">
  <advance width="618" />
  <unicode hex="E32D" />
  <outline>
    <contour>
      <point x="66.6738" y="590.711" type="line" />
      <point x="104.366" y="538.832" type="line" />
      <point x="127.019" y="555.289" type="line" />
      <point x="89.3262" y="607.168" type="line" />
    </contour>
    <contour>
      <point x="127.019" y="538.832" type="line" />
      <point x="164.711" y="590.711" type="line" />
      <point x="142.058" y="607.168" type="line" />
      <point x="104.366" y="555.289" type="line" />
    </contour>
    <contour>
      <point x="142.058" y="590.711" type="line" />
      <point x="179.751" y="538.832" type="line" />
      <point x="202.403" y="555.289" type="line" />
      <point x="164.711" y="607.168" type="line" />
    </contour>
    <contour>
      <point x="202.403" y="538.832" type="line" />
      <point x="240.095" y="590.711" type="line" />
      <point x="217.443" y="607.168" type="line" />
      <point x="179.751" y="555.289" type="line" />
    </contour>
    <contour>
      <point x="217.443" y="590.711" type="line" />
      <point x="255.135" y="538.832" type="line" />
      <point x="277.788" y="555.289" type="line" />
      <point x="240.095" y="607.168" type="line" />
    </contour>
    <contour>
      <point x="277.788" y="538.832" type="line" />
      <point x="315.48" y="590.711" type="line" />
      <point x="292.828" y="607.168" type="line" />
      <point x="255.135" y="555.289" type="line" />
    </contour>
    <contour>
      <point x="292.828" y="590.711" type="line" />
      <point x="330.52" y="538.832" type="line" />
      <point x="353.172" y="555.289" type="line" />
      <point x="315.48" y="607.168" type="line" />
    </contour>
    <contour>
      <point x="353.172" y="538.832" type="line" />
      <point x="390.865" y="590.711" type="line" />
      <point x="368.212" y="607.168" type="line" />
      <point x="330.52" y="555.289" type="line" />
    </contour>
    <contour>
      <point x="368.212" y="590.711" type="line" />
      <point x="405.904" y="538.832" type="line" />
      <point x="428.557" y="555.289" type="line" />
      <point x="390.865" y="607.168" type="line" />
    </contour>
    <contour>
      <point x="428.557" y="538.832" type="line" />
      <point x="466.249" y="590.711" type="line" />
      <point x="443.597" y="607.168" type="line" />
      <point x="405.904" y="555.289" type="line" />
    </contour>
    <contour>
      <point x="443.597" y="590.711" type="line" />
      <point x="481.289" y="538.832" type="line" />
      <point x="503.942" y="555.289" type="line" />
      <point x="466.249" y="607.168" type="line" />
    </contour>
    <contour>
      <point x="503.942" y="538.832" type="line" />
      <point x="541.634" y="590.711" type="line" />
      <point x="518.981" y="607.168" type="line" />
      <point x="481.289" y="555.289" type="line" />
    </contour>
    <contour>
      <point x="518.981" y="590.711" type="line" />
      <point x="556.674" y="538.832" type="line" />
      <point x="579.326" y="555.289" type="line" />
      <point x="541.634" y="607.168" type="line" />
    </contour>
    <contour>
      <point x="61.1244" y="218" type="line" />
      <point x="95.1244" y="276.89" type="line" />
      <point x="70.8756" y="290.89" type="line" />
      <point x="36.8756" y="232" type="line" />
    </contour>
    <contour>
      <point x="95.1244" y="290.89" type="line" />
      <point x="61.1244" y="349.779" type="line" />
      <point x="36.8756" y="335.779" type="line" />
      <point x="70.8756" y="276.89" type="line" />
    </contour>
    <contour>
      <point x="61.1244" y="335.779" type="line" />
      <point x="95.1244" y="394.669" type="line" />
      <point x="70.8756" y="408.669" type="line" />
      <point x="36.8756" y="349.779" type="line" />
    </contour>
    <contour>
      <point x="194" y="345.5" type="line" />
      <point x="443" y="345.5" type="line" />
      <point x="443" y="272.5" type="line" />
      <point x="194" y="272.5" type="line" />
    </contour>
    <contour>
      <point x="340.151" y="425.5" type="line" />
      <point x="318.5" y="438" type="line" />
      <point x="296.849" y="425.5" type="line" />
      <point x="296.849" y="400.5" type="line" />
      <point x="318.5" y="388" type="line" />
      <point x="340.151" y="400.5" type="line" />
    </contour>
    <contour>
      <point x="340.151" y="217.5" type="line" />
      <point x="318.5" y="230" type="line" />
      <point x="296.849" y="217.5" type="line" />
      <point x="296.849" y="192.5" type="line" />
      <point x="318.5" y="180" type="line" />
      <point x="340.151" y="192.5" type="line" />
    </contour>
    <contour>
      <point x="100.25" y="59.7631" type="line" />
      <point x="536.25" y="311.488" type="line" />
      <point x="541.75" y="301.962" type="line" />
      <point x="105.75" y="50.2369" type="line" />
    </contour>
  </outline>
</glyph>
<glyph name="acedit.apl.m7s2o1d1" format="2">
  <advance width="618" />
  <unicode hex="E343" />
  <outline>
    <contour>
      <point x="66.6738" y="590.711" type="line" />
      <point x="104.366" y="538.832" type="line" />
      <point x="127.019" y="555.289" type="line" />
      <point x="89.3262" y="607.168" type="line" />
    </contour>
    <contour>
      <point x="127.019" y="538.832" type="line" />
      <point x="164.711" y="590.711" type="line" />
      <point x="142.058" y="607.168" type="line" />
      <point x="104.366" y="555.289" type="line" />
    </contour>
    <contour>
      <point x="142.058" y="590.711" type="line" />
      <point x="179.751" y="538.832" type="line" />
      <point x="202.403" y="555.289" type="line" />
      <point x="164.711" y="607.168" type="line" />
    </contour>
    <contour>
      <point x="202.403" y="538.832" type="line" />
      <point x="240.095" y="590.711" type="line" />
      <point x="217.443" y="607.168" type="line" />
      <point x="179.751" y="555.289" type="line" />
    </contour>
    <contour>
      <point x="217.443" y="590.711" type="line" />
      <point x="255.135" y="538.832" type="line" />
      <point x="277.788" y="555.289" type="line" />
      <point x="240.095" y="607.168" type="line" />
    </contour>
    <contour>
      <point x="277.788" y="538.832" type="line" />
      <point x="315.48" y="590.711" type="line" />
      <point x="292.828" y="607.168" type="line" />
      <point x="255.135" y="555.289" type="line" />
    </contour>
    <contour>
      <point x="292.828" y="590.711" type="line" />
      <point x="330.52" y="538.832" type="line" />
      <point x="353.172" y="555.289" type="line" />
      <point x="315.48" y="607.168" type="line" />
    </contour>
    <contour>
      <point x="353.172" y="538.832" type="line" />
      <point x="390.865" y="590.711" type="line" />
      <point x="368.212" y="607.168" type="line" />
      <point x="330.52" y="555.289" type="line" />
    </contour>
    <contour>
      <point x="368.212" y="590.711" type="line" />
      <point x="405.904" y="538.832" type="line" />
      <point x="428.557" y="555.289" type="line" />
      <point x="390.865" y="607.168" type="line" />
    </contour>
    <contour>
      <point x="428.557" y="538.832" type="line" />
      <point x="466.249" y="590.711" type="line" />
      <point x="443.597" y="607.168" type="line" />
      <point x="405.904" y="555.289" type="line" />
    </contour>
    <contour>
      <point x="443.597" y="590.711" type="line" />
      <point x="481.289" y="538.832" type="line" />
      <point x="503.942" y="555.289" type="line" />
      <point x="466.249" y="607.168" type="line" />
    </contour>
    <contour>
      <point x="503.942" y="538.832" type="line" />
      <point x="541.634" y="590.711" type="line" />
      <point x="518.981" y="607.168" type="line" />
      <point x="481.289" y="555.289" type="line" />
    </contour>
    <contour>
      <point x="518.981" y="590.711" type="line" />
      <point x="556.674" y="538.832" type="line" />
      <point x="579.326" y="555.289" type="line" />
      <point x="541.634" y="607.168" type="line" />
    </contour>
    <contour>
      <point x="53.7631" y="227.25" type="line" />
      <point x="87.7631" y="286.14" type="line" />
      <point x="78.2369" y="291.64" type="line" />
      <point x="44.2369" y="232.75" type="line" />
    </contour>
    <contour>
      <point x="87.7631" y="291.64" type="line" />
      <point x="53.7631" y="350.529" type="line" />
      <point x="44.2369" y="345.029" type="line" />
      <point x="78.2369" y="286.14" type="line" />
    </contour>
    <contour>
      <point x="53.7631" y="345.029" type="line" />
      <point x="87.7631" y="403.919" type="line" />
      <point x="78.2369" y="409.419" type="line" />
      <point x="44.2369" y="350.529" type="line" />
    </contour>
    <contour>
      <point x="87.7631" y="232.75" type="line" />
      <point x="53.7631" y="291.64" type="line" />
      <point x="44.2369" y="286.14" type="line" />
      <point x="78.2369" y="227.25" type="line" />
    </contour>
    <contour>
      <point x="53.7631" y="286.14" type="line" />
      <point x="87.7631" y="345.029" type="line" />
      <point x="78.2369" y="350.529" type="line" />
      <point x="44.2369" y="291.64" type="line" />
    </contour>
    <contour>
      <point x="87.7631" y="350.529" type="line" />
      <point x="53.7631" y="409.419" type="line" />
      <point x="44.2369" y="403.919" type="line" />
      <point x="78.2369" y="345.029" type="line" />
    </contour>
    <contour>
      <point x="312.5" y="455.5" type="line" />
      <point x="185.627" y="235.75" type="line" />
      <point x="439.373" y="235.75" type="line" />
    </contour>
    <contour>
      <point x="376.153" y="272.25" type="line" />
      <point x="248.847" y="272.25" type="line" />
      <point x="312.5" y="382.5" type="line" />
    </contour>
    <contour>
      <point x="312.5" y="162.5" type="line" />
      <point x="439.373" y="382.25" type="line" />
      <point x="185.627" y="382.25" type="line" />
    </contour>
    <contour>
      <point x="248.847" y="345.75" type="line" />
      <point x="376.153" y="345.75" type="line" />
      <point x="312.5" y="235.5" type="line" />
    </contour>
    <contour>
      <point x="95" y="314.5" type="line" />
      <point x="531" y="314.5" type="line" />
      <point x="531" y="303.5" type="line" />
      <point x="95" y="303.5" type="line" />
    </contour>
  </outline>
</glyph>
<glyph name="acedit.apl.m7s2o2d2" format="2">
  <advance width="618" />
  <unicode hex="E34A" />
  <outline>
    <contour>
      <point x="66.6738" y="590.711" type="line" />
      <point x="104.366" y="538.832" type="line" />
      <point x="127.019" y="555.289" type="line" />
      <point x="89.3262" y="607.168" type="line" />
    </contour>
    <contour>
      <point x="127.019" y="538.832" type="line" />
      <point x="164.711" y="590.711" type="line" />
      <point x="142.058" y="607.168" type="line" />
      <point x="104.366" y="555.289" type="line" />
    </contour>
    <contour>
      <point x="142.058" y="590.711" type="line" />
      <point x="179.751" y="538.832" type="line" />
      <point x="202.403" y="555.289" type="line" />
      <point x="164.711" y="607.168" type="line" />
    </contour>
    <contour>
      <point x="202.403" y="538.832" type="line" />
      <point x="240.095" y="590.711" type="line" />
      <point x="217.443" y="607.168" type="line" />
      <point x="179.751" y="555.289" type="line" />
    </contour>
    <contour>
      <point x="217.443" y="590.711" type="line" />
      <point x="255.135" y="538.832" type="line" />
      <point x="277.788" y="555.289" type="line" />
      <point x="240.095" y="607.168" type="line" />
    </contour>
    <contour>
      <point x="277.788" y="538.832" type="line" />
      <point x="315.48" y="590.711" type="line" />
      <point x="292.828" y="607.168" type="line" />
      <point x="255.135" y="555.289" type="line" />
    </contour>
    <contour>
      <point x="292.828" y="590.711" type="line" />
      <point x="330.52" y="538.832" type="line" />
      <point x="353.172" y="555.289" type="line" />
      <point x="315.48" y="607.168" type="line" />
    </contour>
    <contour>
      <point x="353.172" y="538.832" type="line" />
      <point x="390.865" y="590.711" type="line" />
      <point x="368.212" y="607.168" type="line" />
      <point x="330.52" y="555.289" type="line" />
    </contour>
    <contour>
      <point x="368.212" y="590.711" type="line" />
      <point x="405.904" y="538.832" type="line" />
      <point x="428.557" y="555.289" type="line" />
      <point x="390.865" y="607.168" type="line" />
    </contour>
    <contour>
      <point x="428.557" y="538.832" type="line" />
      <point x="466.249" y="590.711" type="line" />
      <point x="443.597" y="607.168" type="line" />
      <point x="405.904" y="555.289" type="line" />
    </contour>
    <contour>
      <point x="443.597" y="590.711" type="line" />
      <point x="481.289" y="538.832" type="line" />
      <point x="503.942" y="555.289" type="line" />
      <point x="466.249" y="607.168" type="line" />
    </contour>
    <contour>
      <point x="503.942" y="538.832" type="line" />
      <point x="541.634" y="590.711" type="line" />
      <point x="518.981" y="607.168" type="line" />
      <point x="481.289" y="555.289" type="line" />
    </contour>
    <contour>
      <point x="518.981" y="590.711" type="line" />
      <point x="556.674" y="538.832" type="line" />
      <point x="579.326" y="555.289" type="line" />
      <point x="541.634" y="607.168" type="line" />
    </contour>
    <contour>
      <point x="53.7631" y="227.25" type="line" />
      <point x="87.7631" y="286.14" type="line" />
      <point x="78.2369" y="291.64" type="line" />
      <point x="44.2369" y="232.75" type="line" />
    </contour>
    <contour>
      <point x="87.7631" y="291.64" type="line" />
      <point x="53.7631" y="350.529" type="line" />
      <point x="44.2369" y="345.029" type="line" />
      <point x="78.2369" y="286.14" type="line" />
    </contour>
    <contour>
      <point x="53.7631" y="345.029" type="line" />
      <point x="87.7631" y="403.919" type="line" />
      <point x="78.2369" y="409.419" type="line" />
      <point x="44.2369" y="350.529" type="line" />
    </contour>
    <contour>
      <point x="87.7631" y="232.75" type="line" />
      <point x="53.7631" y="291.64" type="line" />
      <point x="44.2369" y="286.14" type="line" />
      <point x="78.2369" y="227.25" type="line" />
    </contour>
    <contour>
      <point x="53.7631" y="286.14" type="line" />
      <point x="87.7631" y="345.029" type="line" />
      <point x="78.2369" y="350.529" type="line" />
      <point x="44.2369" y="291.64" type="line" />
    </contour>
    <contour>
      <point x="87.7631" y="350.529" type="line" />
      <point x="53.7631" y="409.419" type="line" />
      <point x="44.2369" y="403.919" type="line" />
      <point x="78.2369" y="345.029" type="line" />
    </contour>
    <contour>
      <point x="303.376" y="196" type="line" />
      <point x="234.094" y="316" type="line" />
      <point x="258.342" y="330" type="line" />
      <point x="327.624" y="210" type="line" />
    </contour>
    <contour>
      <point x="303.376" y="210" type="line" />
      <point x="372.658" y="330" type="line" />
      <point x="396.906" y="316" type="line" />
      <point x="327.624" y="196" type="line" />
    </contour>
    <contour>
      <point x="303.376" y="276" type="line" />
      <point x="245.641" y="376" type="line" />
      <point x="269.889" y="390" type="line" />
      <point x="327.624" y="290" type="line" />
    </contour>
    <contour>
      <point x="303.376" y="290" type="line" />
      <point x="361.111" y="390" type="line" />
      <point x="385.359" y="376" type="line" />
      <point x="327.624" y="276" type="line" />
    </contour>
    <contour>
      <point x="303.376" y="346" type="line" />
      <point x="257.188" y="426" type="line" />
      <point x="281.436" y="440" type="line" />
      <point x="327.624" y="360" type="line" />
    </contour>
    <contour>
      <point x="303.376" y="360" type="line" />
      <point x="349.564" y="440" type="line" />
      <point x="373.812" y="426" type="line" />
      <point x="327.624" y="346" type="line" />
    </contour>
    <contour>
      <point x="99" y="211.5" type="line" />
      <point x="535" y="211.5" type="line" />
      <point x="535" y="200.5" type="line" />
      <point x="99" y="200.5" type="line" />
    </contour>
    <contour>
      <point x="99" y="417.5" type="line" />
      <point x="535" y="417.5" type="line" />
      <point x="535" y="406.5" type="line" />
      <point x="99" y="406.5" type="line" />
    </contour>
  </outline>
</glyph>
<glyph name="acedit.apl.m8s0o0d2" format="2">
  <advance width="618" />
  <unicode hex="E362" />
  <outline>
    <contour>
      <point x="337.124" y="553" type="line" />
      <point x="307.124" y="604.962" type="line" />
      <point x="282.876" y="590.962" type="line" />
      <point x="312.876" y="539" type="line" />
    </contour>
    <contour>
      <point x="337.124" y="539" type="line" />
      <point x="367.124" y="590.962" type="line" />
      <point x="342.876" y="604.962" type="line" />
      <point x="312.876" y="553" type="line" />
    </contour>
    <contour>
      <point x="337.124" y="553" type="line" />
      <point x="317.124" y="587.641" type="line" />
      <point x="292.876" y="573.641" type="line" />
      <point x="312.876" y="539" type="line" />
    </contour>
    <contour>
      <point x="337.124" y="539" type="line" />
      <point x="357.124" y="573.641" type="line" />
      <point x="332.876" y="587.641" type="line" />
      <point x="312.876" y="553" type="line" />
    </contour>
    <contour>
      <point x="337.124" y="553" type="line" />
      <point x="327.124" y="570.321" type="line" />
      <point x="302.876" y="556.321" type="line" />
      <point x="312.876" y="539" type="line" />
    </contour>
    <contour>
      <point x="337.124" y="539" type="line" />
      <point x="347.124" y="556.321" type="line" />
      <point x="322.876" y="570.321" type="line" />
      <point x="312.876" y="553" type="line" />
    </contour>
    <contour>
      <point x="80" y="220" type="line" />
      <point x="80" y="398" type="line" />
      <point x="52" y="398" type="line" />
      <point x="52" y="220" type="line" />
    </contour>
    <contour>
      <point x="445.033" y="387.25" type="line" />
      <point x="309.5" y="465.5" type="line" />
      <point x="173.967" y="387.25" type="line" />
      <point x="173.967" y="230.75" type="line" />
      <point x="309.5" y="152.5" type="line" />
      <point x="445.033" y="230.75" type="line" />
    </contour>
    <contour>
      <point x="381.813" y="267.25" type="line" />
      <point x="309.5" y="225.5" type="line" />
      <point x="237.187" y="267.25" type="line" />
      <point x="237.187" y="350.75" type="line" />
      <point x="309.5" y="392.5" type="line" />
      <point x="381.813" y="350.75" type="line" />
    </contour>
    <contour>
      <point x="309.5" y="329" type="line" />
      <point x="292.18" y="299" type="line" />
      <point x="326.82" y="299" type="line" />
    </contour>
    <contour>
      <point x="99" y="211.5" type="line" />
      <point x="535" y="211.5" type="line" />
      <point x="535" y="200.5" type="line" />
      <point x="99" y="200.5" type="line" />
    </contour>
    <contour>
      <point x="99" y="417.5" type="line" />
      <point x="535" y="417.5" type="line" />
      <point x="535" y="406.5" type="line" />
      <point x="99" y="406.5" type="line" />
    </contour>
  </outline>
</glyph>
<glyph name="acedit.apl.m8s0o1d2" format="2">
  <advance width="618" />
  <unicode hex="E368" />
  <outline>
    <contour>
      <point x="337.124" y="553" type="line" />
      <point x="307.124" y="604.962" type="line" />
      <point x="282.876" y="590.962" type="line" />
      <point x="312.876" y="539" type="line" />
    </contour>
    <contour>
      <point x="337.124" y="539" type="line" />
      <point x="367.124" y="590.962" type="line" />
      <point x="342.876" y="604.962" type="line" />
      <point x="312.876" y="553" type="line" />
    </contour>
    <contour>
      <point x="337.124" y="553" type="line" />
      <point x="317.124" y="587.641" type="line" />
      <point x="292.876" y="573.641" type="line" />
      <point x="312.876" y="539" type="line" />
    </contour>
    <contour>
      <point x="337.124" y="539" type="line" />
      <point x="357.124" y="573.641" type="line" />
      <point x="332.876" y="587.641" type="line" />
      <point x="312.876" y="553" type="line" />
    </contour>
    <contour>
      <point x="337.124" y="553" type="line" />
      <point x="327.124" y="570.321" type="line" />
      <point x="302.876" y="556.321" type="line" />
      <point x="312.876" y="539" type="line" />
    </contour>
    <contour>
      <point x="337.124" y="539" type="line" />
      <point x="347.124" y="556.321" type="line" />
      <point x="322.876" y="570.321" type="line" />
      <point x="312.876" y="553" type="line" />
    </contour>
    <contour>
      <point x="80" y="220" type="line" />
      <point x="80" y="398" type="line" />
      <point x="52" y="398" type="line" />
      <point x="52" y="220" type="line" />
    </contour>
    <contour>
      <point x="312.5" y="455.5" type="line" />
      <point x="185.627" y="235.75" type="line" />
      <point x="439.373" y="235.75" type="line" />
    </contour>
    <contour>
      <point x="376.153" y="272.25" type="line" />
      <point x="248.847" y="272.25" type="line" />
      <point x="312.5" y="382.5" type="line" />
    </contour>
    <contour>
      <point x="312.5" y="162.5" type="line" />
      <point x="439.373" y="382.25" type="line" />
      <point x="185.627" y="382.25" type="line" />
    </contour>
    <contour>
      <point x="248.847" y="345.75" type="line" />
      <point x="376.153" y="345.75" type="line" />
      <point x="312.5" y="235.5" type="line" />
    </contour>
    <contour>
      <point x="99" y="211.5" type="line" />
      <point x="535" y="211.5" type="line" />
      <point x="535" y="200.5" type="line" />
      <point x="99" y="200.5" type="line" />
    </contour>
    <contour>
      <point x="99" y="417.5" type="line" />
      <point x="535" y="417.5" type="line" />
      <point x="535" y="406.5" type="line" />
      <point x="99" y="406.5" type="line" />
    </contour>
  </outline>
</glyph>
<glyph name="acedit.apl.m8s0o2d1" format="2">
  <advance width="618" />
  <unicode hex="E36D" />
  <outline>
    <contour>
      <point x="337.124" y="553" type="line" />
      <point x="307.124" y="604.962" type="line" />
      <point x="282.876" y="590.962" type="line" />
      <point x="312.876" y="539" type="line" />
    </contour>
    <contour>
      <point x="337.124" y="539" type="line" />
      <point x="367.124" y="590.962" type="line" />
      <point x="342.876" y="604.962" type="line" />
      <point x="312.876" y="553" type="line" />
    </contour>
    <contour>
      <point x="337.124" y="553" type="line" />
      <point x="317.124" y="587.641" type="line" />
      <point x="292.876" y="573.641" type="line" />
      <point x="312.876" y="539" type="line" />
    </contour>
    <contour>
      <point x="337.124" y="539" type="line" />
      <point x="357.124" y="573.641" type="line" />
      <point x="332.876" y="587.641" type="line" />
      <point x="312.876" y="553" type="line" />
    </contour>
    <contour>
      <point x="337.124" y="553" type="line" />
      <point x="327.124" y="570.321" type="line" />
      <point x="302.876" y="556.321" type="line" />
      <point x="312.876" y="539" type="line" />
    </contour>
    <contour>
      <point x="337.124" y="539" type="line" />
      <point x="347.124" y="556.321" type="line" />
      <point x="322.876" y="570.321" type="line" />
      <point x="312.876" y="553" type="line" />
    </contour>
    <contour>
      <point x="80" y="220" type="line" />
      <point x="80" y="398" type="line" />
      <point x="52" y="398" type="line" />
      <point x="52" y="220" type="line" />
    </contour>
    <contour>
      <point x="303.376" y="196" type="line" />
      <point x="234.094" y="316" type="line" />
      <point x="258.342" y="330" type="line" />
      <point x="327.624" y="210" type="line" />
    </contour>
    <contour>
      <point x="303.376" y="210" type="line" />
      <point x="372.658" y="330" type="line" />
      <point x="396.906" y="316" type="line" />
      <point x="327.624" y="196" type="line" />
    </contour>
    <contour>
      <point x="303.376" y="276" type="line" />
      <point x="245.641" y="376" type="line" />
      <point x="269.889" y="390" type="line" />
      <point x="327.624" y="290" type="line" />
    </contour>
    <contour>
      <point x="303.376" y="290" type="line" />
      <point x="361.111" y="390" type="line" />
      <point x="385.359" y="376" type="line" />
      <point x="327.624" y="276" type="line" />
    </contour>
    <contour>
      <point x="303.376" y="346" type="line" />
      <point x="257.188" y="426" type="line" />
      <point x="281.436" y="440" type="line" />
      <point x="327.624" y="360" type="line" />
    </contour>
    <contour>
      <point x="303.376" y="360" type="line" />
      <point x="349.564" y="440" type="line" />
      <point x="373.812" y="426" type="line" />
      <point x="327.624" y="346" type="line" />
    </contour>
    <contour>
      <point x="95" y="314.5" type="line" />
      <point x="531" y="314.5" type="line" />
      <point x="531" y="303.5" type="line" />
      <point x="95" y="303.5" type="line" />
    </contour>
  </outline>
</glyph>
<glyph name="acedit.apl.m8s1o0d0" format="2">
  <advance width="618" />
  <unicode hex="E384" />
  <outline>
    <contour>
      <point x="337.124" y="553" type="line" />
      <point x="307.124" y="604.962" type="line" />
      <point x="282.876" y="590.962" type="line" />
      <point x="312.876" y="539" type="line" />
    </contour>
    <contour>
      <point x="337.124" y="539" type="line" />
      <point x="367.124" y="590.962" type="line" />
      <point x="342.876" y="604.962" type="line" />
      <point x="312.876" y="553" type="line" />
    </contour>
    <contour>
      <point x="337.124" y="553" type="line" />
      <point x="317.124" y="587.641" type="line" />
      <point x="292.876" y="573.641" type="line" />
      <point x="312.876" y="539" type="line" />
    </contour>
    <contour>
      <point x="337.124" y="539" type="line" />
      <point x="357.124" y="573.641" type="line" />
      <point x="332.876" y="587.641" type="line" />
      <point x="312.876" y="553" type="line" />
    </contour>
    <contour>
      <point x="337.124" y="553" type="line" />
      <point x="327.124" y="570.321" type="line" />
      <point x="302.876" y="556.321" type="line" />
      <point x="312.876" y="539" type="line" />
    </contour>
    <contour>
      <point x="337.124" y="539" type="line" />
      <point x="347.124" y="556.321" type="line" />
      <point x="322.876" y="570.321" type="line" />
      <point x="312.876" y="553" type="line" />
    </contour>
    <contour>
      <point x="61.1244" y="218" type="line" />
      <point x="95.1244" y="276.89" type="line" />
      <point x="70.8756" y="290.89" type="line" />
      <point x="36.8756" y="232" type="line" />
    </contour>
    <contour>
      <point x="95.1244" y="290.89" type="line" />
      <point x="61.1244" y="349.779" type="line" />
      <point x="36.8756" y="335.779" type="line" />
      <point x="70.8756" y="276.89" type="line" />
    </contour>
    <contour>
      <point x="61.1244" y="335.779" type="line" />
      <point x="95.1244" y="394.669" type="line" />
      <point x="70.8756" y="408.669" type="line" />
      <point x="36.8756" y="349.779" type="line" />
    </contour>
    <contour>
      <point x="445.033" y="387.25" type="line" />
      <point x="309.5" y="465.5" type="line" />
      <point x="173.967" y="387.25" type="line" />
      <point x="173.967" y="230.75" type="line" />
      <point x="309.5" y="152.5" type="line" />
      <point x="445.033" y="230.75" type="line" />
    </contour>
    <contour>
      <point x="381.813" y="267.25" type="line" />
      <point x="309.5" y="225.5" type="line" />
      <point x="237.187" y="267.25" type="line" />
      <point x="237.187" y="350.75" type="line" />
      <point x="309.5" y="392.5" type="line" />
      <point x="381.813" y="350.75" type="line" />
    </contour>
    <contour>
      <point x="309.5" y="329" type="line" />
      <point x="292.18" y="299" type="line" />
      <point x="326.82" y="299" type="line" />
    </contour>
  </outline>
</glyph>
<glyph name="acedit.apl.m8s2o0d5" format="2">
  <advance width="618" />
  <unicode hex="E3AD" />
  <outline>
    <contour>
      <point x="337.124" y="553" type="line" />
      <point x="307.124" y="604.962" type="line" />
      <point x="282.876" y="590.962" type="line" />
      <point x="312.876" y="539" type="line" />
    </contour>
    <contour>
      <point x="337.124" y="539" type="line" />
      <point x="367.124" y="590.962" type="line" />
      <point x="342.876" y="604.962" type="line" />
      <point x="312.876" y="553" type="line" />
    </contour>
    <contour>
      <point x="337.124" y="553" type="line" />
      <point x="317.124" y="587.641" type="line" />
      <point x="292.876" y="573.641" type="line" />
      <point x="312.876" y="539" type="line" />
    </contour>
    <contour>
      <point x="337.124" y="539" type="line" />
      <point x="357.124" y="573.641" type="line" />
      <point x="332.876" y="587.641" type="line" />
      <point x="312.876" y="553" type="line" />
    </contour>
    <contour>
      <point x="337.124" y="553" type="line" />
      <point x="327.124" y="570.321" type="line" />
      <point x="302.876" y="556.321" type="line" />
      <point x="312.876" y="539" type="line" />
    </contour>
    <contour>
      <point x="337.124" y="539" type="line" />
      <point x="347.124" y="556.321" type="line" />
      <point x="322.876" y="570.321" type="line" />
      <point x="312.876" y="553" type="line" />
    </contour>
    <contour>
      <point x="53.7631" y="227.25" type="line" />
      <point x="87.7631" y="286.14" type="line" />
      <point x="78.2369" y="291.64" type="line" />
      <point x="44.2369" y="232.75" type="line" />
    </contour>
    <contour>
      <point x="87.7631" y="291.64" type="line" />
      <point x="53.7631" y="350.529" type="line" />
      <point x="44.2369" y="345.029" type="line" />
      <point x="78.2369" y="286.14" type="line" />
    </contour>
    <contour>
      <point x="53.7631" y="345.029" type="line" />
      <point x="87.7631" y="403.919" type="line" />
      <point x="78.2369" y="409.419" type="line" />
      <point x="44.2369" y="350.529" type="line" />
    </contour>
    <contour>
      <point x="87.7631" y="232.75" type="line" />
      <point x="53.7631" y="291.64" type="line" />
      <point x="44.2369" y="286.14" type="line" />
      <point x="78.2369" y="227.25" type="line" />
    </contour>
    <contour>
      <point x="53.7631" y="286.14" type="line" />
      <point x="87.7631" y="345.029" type="line" />
      <point x="78.2369" y="350.529" type="line" />
      <point x="44.2369" y="291.64" type="line" />
    </contour>
    <contour>
      <point x="87.7631" y="350.529" type="line" />
      <point x="53.7631" y="409.419" type="line" />
      <point x="44.2369" y="403.919" type="line" />
      <point x="78.2369" y="345.029" type="line" />
    </contour>
    <contour>
      <point x="445.033" y="387.25" type="line" />
      <point x="309.5" y="465.5" type="line" />
      <point x="173.967" y="387.25" type="line" />
      <point x="173.967" y="230.75" type="line" />
      <point x="309.5" y="152.5" type="line" />
      <point x="445.033" y="230.75" type="line" />
    </contour>
    <contour>
      <point x="381.813" y="267.25" type="line" />
      <point x="309.5" y="225.5" type="line" />
      <point x="237.187" y="267.25" type="line" />
      <point x="237.187" y="350.75" type="line" />
      <point x="309.5" y="392.5" type="line" />
      <point x="381.813" y="350.75" type="line" />
    </contour>
    <contour>
      <point x="309.5" y="329" type="line" />
      <point x="292.18" y="299" type="line" />
      <point x="326.82" y="299" type="line" />
    </contour>
    <contour>
      <point x="111" y="314.5" type="line" />
      <point x="547" y="314.5" type="line" />
      <point x="547" y="303.5" type="line" />
      <point x="111" y="303.5" type="line" />
    </contour>
    <contour>
      <point x="224.237" y="138.545" type="line" />
      <point x="424.237" y="484.955" type="line" />
      <point x="433.763" y="479.455" type="line" />
      <point x="233.763" y="133.045" type="line" />
    </contour>
    <contour>
      <point x="424.237" y="133.045" type="line" />
      <point x="224.237" y="479.455" type="line" />
      <point x="233.763" y="484.955" type="line" />
      <point x="433.763" y="138.545" type="line" />
    </contour>
  </outline>
</glyph>
<glyph name="acedit.apl.m8s2o3d5" format="2">
  <advance width="618" />
  <unicode hex="E3BF" />
  <outline>
    <contour>
      <point x="337.124" y="553" type="line" />
      <point x="307.124" y="604.962" type="line" />
      <point x="282.876" y="590.962" type="line" />
      <point x="312.876" y="539" type="line" />
    </contour>
    <contour>
      <point x="337.124" y="539" type="line" />
      <point x="367.124" y="590.962" type="line" />
      <point x="342.876" y="604.962" type="line" />
      <point x="312.876" y="553" type="line" />
    </contour>
    <contour>
      <point x="337.124" y="553" type="line" />
      <point x="317.124" y="587.641" type="line" />
      <point x="292.876" y="573.641" type="line" />
      <point x="312.876" y="539" type="line" />
    </contour>
    <contour>
      <point x="337.124" y="539" type="line" />
      <point x="357.124" y="573.641" type="line" />
      <point x="332.876" y="587.641" type="line" />
      <point x="312.876" y="553" type="line" />
    </contour>
    <contour>
      <point x="337.124" y="553" type="line" />
      <point x="327.124" y="570.321" type="line" />
      <point x="302.876" y="556.321" type="line" />
      <point x="312.876" y="539" type="line" />
    </contour>
    <contour>
      <point x="337.124" y="539" type="line" />
      <point x="347.124" y="556.321" type="line" />
      <point x="322.876" y="570.321" type="line" />
      <point x="312.876" y="553" type="line" />
    </contour>
    <contour>
      <point x="53.7631" y="227.25" type="line" />
      <point x="87.7631" y="286.14" type="line" />
      <point x="78.2369" y="291.64" type="line" />
      <point x="44.2369" y="232.75" type="line" />
    </contour>
    <contour>
      <point x="87.7631" y="291.64" type="line" />
      <point x="53.7631" y="350.529" type="line" />
      <point x="44.2369" y="345.029" type="line" />
      <point x="78.2369" y="286.14" type="line" />
    </contour>
    <contour>
      <point x="53.7631" y="345.029" type="line" />
      <point x="87.7631" y="403.919" type="line" />
      <point x="78.2369" y="409.419" type="line" />
      <point x="44.2369" y="350.529" type="line" />
    </contour>
    <contour>
      <point x="87.7631" y="232.75" type="line" />
      <point x="53.7631" y="291.64" type="line" />
      <point x="44.2369" y="286.14" type="line" />
      <point x="78.2369" y="227.25" type="line" />
    </contour>
    <contour>
      <point x="53.7631" y="286.14" type="line" />
      <point x="87.7631" y="345.029" type="line" />
      <point x="78.2369" y="350.529" type="line" />
      <point x="44.2369" y="291.64" type="line" />
    </contour>
    <contour>
      <point x="87.7631" y="350.529" type="line" />
      <point x="53.7631" y="409.419" type="line" />
      <point x="44.2369" y="403.919" type="line" />
      <point x="78.2369" y="345.029" type="line" />
    </contour>
    <contour>
      <point x="194" y="345.5" type="line" />
      <point x="443" y="345.5" type="line" />
      <point x="443" y="272.5" type="line" />
      <point x="194" y="272.5" type="line" />
    </contour>
    <contour>
      <point x="340.151" y="425.5" type="line" />
      <point x="318.5" y="438" type="line" />
      <point x="296.849" y="425.5" type="line" />
      <point x="296.849" y="400.5" type="line" />
      <point x="318.5" y="388" type="line" />
      <point x="340.151" y="400.5" type="line" />
    </contour>
    <contour>
      <point x="340.151" y="217.5" type="line" />
      <point x="318.5" y="230" type="line" />
      <point x="296.849" y="217.5" type="line" />
      <point x="296.849" y="192.5" type="line" />
      <point x="318.5" y="180" type="line" />
      <point x="340.151" y="192.5" type="line" />
    </contour>
    <contour>
      <point x="111" y="314.5" type="line" />
      <point x="547" y="314.5" type="line" />
      <point x="547" y="303.5" type="line" />
      <point x="111" y="303.5" type="line" />
    </contour>
    <contour>
      <point x="224.237" y="138.545" type="line" />
      <point x="424.237" y="484.955" type="line" />
      <point x="433.763" y="479.455" type="line" />
      <point x="233.763" y="133.045" type="line" />
    </contour>
    <contour>
      <point x="424.237" y="133.045" type="line" />
      <point x="224.237" y="479.455" type="line" />
      <point x="233.763" y="484.955" type="line" />
      <point x="433.763" y="138.545" type="line" />
    </contour>
  </outline>
</glyph>
<glyph name="acedit.apl.m8s2o4d0" format="2">
  <advance width="618" />
  <unicode hex="E3C0" />
  <outline>
    <contour>
      <point x="337.124" y="553" type="line" />
      <point x="307.124" y="604.962" type="line" />
      <point x="282.876" y="590.962" type="line" />
      <point x="312.876" y="539" type="line" />
    </contour>
    <contour>
      <point x="337.124" y="539" type="line" />
      <point x="367.124" y="590.962" type="line" />
      <point x="342.876" y="604.962" type="line" />
      <point x="312.876" y="553" type="line" />
    </contour>
    <contour>
      <point x="337.124" y="553" type="line" />
      <point x="317.124" y="587.641" type="line" />
      <point x="292.876" y="573.641" type="line" />
      <point x="312.876" y="539" type="line" />
    </contour>
    <contour>
      <point x="337.124" y="539" type="line" />
      <point x="357.124" y="573.641" type="line" />
      <point x="332.876" y="587.641" type="line" />
      <point x="312.876" y="553" type="line" />
    </contour>
    <contour>
      <point x="337.124" y="553" type="line" />
      <point x="327.124" y="570.321" type="line" />
      <point x="302.876" y="556.321" type="line" />
      <point x="312.876" y="539" type="line" />
    </contour>
    <contour>
      <point x="337.124" y="539" type="line" />
      <point x="347.124" y="556.321" type="line" />
      <point x="322.876" y="570.321" type="line" />
      <point x="312.876" y="553" type="line" />
    </contour>
    <contour>
      <point x="53.7631" y="227.25" type="line" />
      <point x="87.7631" y="286.14" type="line" />
      <point x="78.2369" y="291.64" type="line" />
      <point x="44.2369" y="232.75" type="line" />
    </contour>
    <contour>
      <point x="87.7631" y="291.64" type="line" />
      <point x="53.7631" y="350.529" type="line" />
      <point x="44.2369" y="345.029" type="line" />
      <point x="78.2369" y="286.14" type="line" />
    </contour>
    <contour>
      <point x="53.7631" y="345.029" type="line" />
      <point x="87.7631" y="403.919" type="line" />
      <point x="78.2369" y="409.419" type="line" />
      <point x="44.2369" y="350.529" type="line" />
    </contour>
    <contour>
      <point x="87.7631" y="232.75" type="line" />
      <point x="53.7631" y="291.64" type="line" />
      <point x="44.2369" y="286.14" type="line" />
      <point x="78.2369" y="227.25" type="line" />
    </contour>
    <contour>
      <point x="53.7631" y="286.14" type="line" />
      <point x="87.7631" y="345.029" type="line" />
      <point x="78.2369" y="350.529" type="line" />
      <point x="44.2369" y="291.64" type="line" />
    </contour>
    <contour>
      <point x="87.7631" y="350.529" type="line" />
      <point x="53.7631" y="409.419" type="line" />
      <point x="44.2369" y="403.919" type="line" />
      <point x="78.2369" y="345.029" type="line" />
    </contour>
    <contour>
      <point x="285" y="459" type="line" />
      <point x="285" y="345.5" type="line" />
      <point x="171.5" y="345.5" type="line" />
      <point x="171.5" y="272.5" type="line" />
      <point x="285" y="272.5" type="line" />
      <point x="285" y="159" type="line" />
      <point x="358" y="159" type="line" />
      <point x="358" y="272.5" type="line" />
      <point x="471.5" y="272.5" type="line" />
      <point x="471.5" y="345.5" type="line" />
      <point x="358" y="345.5" type="line" />
      <point x="358" y="459" type="line" />
    </contour>
  </outline>
</glyph>
<glyph name="acedit.ucf.007" format="2">
  <advance width="618" />
  <unicode hex="E3D3" />
  <outline>
    <contour>
      <point x="451.028" y="391" type="line" />
      <point x="309" y="473" type="line" />
      <point x="166.972" y="391" type="line" />
      <point x="166.972" y="227" type="line" />
      <point x="309" y="145" type="line" />
      <point x="451.028" y="227" type="line" />
    </contour>
    <contour>
      <point x="426.779" y="241" type="line" />
      <point x="309" y="173" type="line" />
      <point x="191.22" y="241" type="line" />
      <point x="191.22" y="377" type="line" />
      <point x="309" y="445" type="line" />
      <point x="426.779" y="377" type="line" />
    </contour>
    <contour>
      <point x="303.5" y="475" type="line" />
      <point x="303.5" y="493" type="line" />
      <point x="314.5" y="493" type="line" />
      <point x="314.5" y="475" type="line" />
    </contour>
    <contour>
      <point x="171.47" y="402.123" type="line" />
      <point x="156.908" y="412.703" type="line" />
      <point x="163.374" y="421.602" type="line" />
      <point x="177.936" y="411.022" type="line" />
    </contour>
    <contour>
      <point x="147.771" y="269.107" type="line" />
      <point x="130.164" y="265.364" type="line" />
      <point x="127.877" y="276.124" type="line" />
      <point x="145.484" y="279.866" type="line" />
    </contour>
    <contour>
      <point x="246.506" y="155.114" type="line" />
      <point x="239.185" y="138.671" type="line" />
      <point x="229.136" y="143.145" type="line" />
      <point x="236.457" y="159.589" type="line" />
    </contour>
    <contour>
      <point x="381.543" y="159.589" type="line" />
      <point x="388.864" y="143.145" type="line" />
      <point x="378.815" y="138.671" type="line" />
      <point x="371.494" y="155.114" type="line" />
    </contour>
    <contour>
      <point x="472.516" y="279.866" type="line" />
      <point x="490.123" y="276.124" type="line" />
      <point x="487.836" y="265.364" type="line" />
      <point x="470.229" y="269.107" type="line" />
    </contour>
    <contour>
      <point x="440.064" y="411.022" type="line" />
      <point x="454.626" y="421.602" type="line" />
      <point x="461.092" y="412.703" type="line" />
      <point x="446.53" y="402.123" type="line" />
    </contour>
  </outline>
</glyph>
<glyph name="acedit.ucf.009" format="2">
  <advance width="618" />
  <unicode hex="E3D5" />
  <outline>
    <contour>
      <point x="451.028" y="391" type="line" />
      <point x="309" y="473" type="line" />
      <point x="166.972" y="391" type="line" />
      <point x="166.972" y="227" type="line" />
      <point x="309" y="145" type="line" />
      <point x="451.028" y="227" type="line" />
    </contour>
    <contour>
      <point x="426.779" y="241" type="line" />
      <point x="309" y="173" type="line" />
      <point x="191.22" y="241" type="line" />
      <point x="191.22" y="377" type="line" />
      <point x="309" y="445" type="line" />
      <point x="426.779" y="377" type="line" />
    </contour>
    <contour>
      <point x="303.5" y="475" type="line" />
      <point x="303.5" y="493" type="line" />
      <point x="314.5" y="493" type="line" />
      <point x="314.5" y="475" type="line" />
    </contour>
    <contour>
      <point x="193.837" y="428.682" type="line" />
      <point x="181.793" y="442.058" type="line" />
      <point x="189.967" y="449.419" type="line" />
      <point x="202.012" y="436.042" type="line" />
    </contour>
    <contour>
      <point x="145.484" y="338.134" type="line" />
      <point x="127.877" y="341.876" type="line" />
      <point x="130.164" y="352.636" type="line" />
      <point x="147.771" y="348.893" type="line" />
    </contour>
    <contour>
      <point x="167.99" y="221.237" type="line" />
      <point x="152.401" y="212.237" type="line" />
      <point x="146.901" y="221.763" type="line" />
      <point x="162.49" y="230.763" type="line" />
    </contour>
    <contour>
      <point x="262.934" y="149.425" type="line" />
      <point x="257.372" y="132.306" type="line" />
      <point x="246.91" y="135.705" type="line" />
      <point x="252.472" y="152.824" type="line" />
    </contour>
    <contour>
      <point x="365.528" y="152.824" type="line" />
      <point x="371.09" y="135.705" type="line" />
      <point x="360.628" y="132.306" type="line" />
      <point x="355.066" y="149.425" type="line" />
    </contour>
    <contour>
      <point x="455.51" y="230.763" type="line" />
      <point x="471.099" y="221.763" type="line" />
      <point x="465.599" y="212.237" type="line" />
      <point x="450.01" y="221.237" type="line" />
    </contour>
    <contour>
      <point x="470.229" y="348.893" type="line" />
      <point x="487.836" y="352.636" type="line" />
      <point x="490.123" y="341.876" type="line" />
      <point x="472.516" y="338.134" type="line" />
    </contour>
    <contour>
      <point x="415.988" y="436.042" type="line" />
      <point x="428.033" y="449.419" type="line" />
      <point x="436.207" y="442.058" type="line" />
      <point x="424.163" y="428.682" type="line" />
    </contour>
  </outline>
</glyph>
<glyph name="acedit.ucf.010" format="2">
  <advance width="618" />
  <unicode hex="E3D6" />
  <outline>
    <contour>
      <point x="451.028" y="391" type="line" />
      <point x="309" y="473" type="line" />
      <point x="166.972" y="391" type="line" />
      <point x="166.972" y="227" type="line" />
      <point x="309" y="145" type="line" />
      <point x="451.028" y="227" type="line" />
    </contour>
    <contour>
      <point x="426.779" y="241" type="line" />
      <point x="309" y="173" type="line" />
      <point x="191.22" y="241" type="line" />
      <point x="191.22" y="377" type="line" />
      <point x="309" y="445" type="line" />
      <point x="426.779" y="377" type="line" />
    </contour>
    <contour>
      <point x="303.5" y="475" type="line" />
      <point x="303.5" y="493" type="line" />
      <point x="314.5" y="493" type="line" />
      <point x="314.5" y="475" type="line" />
    </contour>
    <contour>
      <point x="206.978" y="440.064" type="line" />
      <point x="196.398" y="454.626" type="line" />
      <point x="205.297" y="461.092" type="line" />
      <point x="215.877" y="446.53" type="line" />
    </contour>
    <contour>
      <point x="149.425" y="355.066" type="line" />
      <point x="132.306" y="360.628" type="line" />
      <point x="135.705" y="371.09" type="line" />
      <point x="152.824" y="365.528" type="line" />
    </contour>
    <contour>
      <point x="152.824" y="252.472" type="line" />
      <point x="135.705" y="246.91" type="line" />
      <point x="132.306" y="257.372" type="line" />
      <point x="149.425" y="262.934" type="line" />
    </contour>
    <contour>
      <point x="215.877" y="171.47" type="line" />
      <point x="205.297" y="156.908" type="line" />
      <point x="196.398" y="163.374" type="line" />
      <point x="206.978" y="177.936" type="line" />
    </contour>
    <contour>
      <point x="314.5" y="143" type="line" />
      <point x="314.5" y="125" type="line" />
      <point x="303.5" y="125" type="line" />
      <point x="303.5" y="143" type="line" />
    </contour>
    <contour>
      <point x="411.022" y="177.936" type="line" />
      <point x="421.602" y="163.374" type="line" />
      <point x="412.703" y="156.908" type="line" />
      <point x="402.123" y="171.47" type="line" />
    </contour>
    <contour>
      <point x="468.575" y="262.934" type="line" />
      <point x="485.694" y="257.372" type="line" />
      <point x="482.295" y="246.91" type="line" />
      <point x="465.176" y="252.472" type="line" />
    </contour>
    <contour>
      <point x="465.176" y="365.528" type="line" />
      <point x="482.295" y="371.09" type="line" />
      <point x="485.694" y="360.628" type="line" />
      <point x="468.575" y="355.066" type="line" />
    </contour>
    <contour>
      <point x="402.123" y="446.53" type="line" />
      <point x="412.703" y="461.092" type="line" />
      <point x="421.602" y="454.626" type="line" />
      <point x="411.022" y="440.064" type="line" />
    </contour>
  </outline>
</glyph>
<glyph name="acedit.ucf.016" format="2">
  <advance width="618" />
  <unicode hex="E3DC" />
  <outline>
    <contour>
      <point x="451.028" y="391" type="line" />
      <point x="309" y="473" type="line" />
      <point x="166.972" y="391" type="line" />
      <point x="166.972" y="227" type="line" />
      <point x="309" y="145" type="line" />
      <point x="451.028" y="227" type="line" />
    </contour>
    <contour>
      <point x="426.779" y="241" type="line" />
      <point x="309" y="173" type="line" />
      <point x="191.22" y="241" type="line" />
      <point x="191.22" y="377" type="line" />
      <point x="309" y="445" type="line" />
      <point x="426.779" y="377" type="line" />
    </contour>
    <contour>
      <point x="303.5" y="475" type="line" />
      <point x="303.5" y="493" type="line" />
      <point x="314.5" y="493" type="line" />
      <point x="314.5" y="475" type="line" />
    </contour>
    <contour>
      <point x="236.457" y="458.411" type="line" />
      <point x="229.136" y="474.855" type="line" />
      <point x="239.185" y="479.329" type="line" />
      <point x="246.506" y="462.886" type="line" />
    </contour>
    <contour>
      <point x="193.837" y="428.682" type="line" />
      <point x="181.793" y="442.058" type="line" />
      <point x="189.967" y="449.419" type="line" />
      <point x="202.012" y="436.042" type="line" />
    </contour>
    <contour>
      <point x="155.114" y="371.494" type="line" />
      <point x="138.671" y="378.815" type="line" />
      <point x="143.145" y="388.864" type="line" />
      <point x="159.589" y="381.543" type="line" />
    </contour>
    <contour>
      <point x="143" y="303.5" type="line" />
      <point x="125" y="303.5" type="line" />
      <point x="125" y="314.5" type="line" />
      <point x="143" y="314.5" type="line" />
    </contour>
    <contour>
      <point x="159.589" y="236.457" type="line" />
      <point x="143.145" y="229.136" type="line" />
      <point x="138.671" y="239.185" type="line" />
      <point x="155.114" y="246.506" type="line" />
    </contour>
    <contour>
      <point x="202.012" y="181.958" type="line" />
      <point x="189.967" y="168.581" type="line" />
      <point x="181.793" y="175.942" type="line" />
      <point x="193.837" y="189.318" type="line" />
    </contour>
    <contour>
      <point x="246.506" y="155.114" type="line" />
      <point x="239.185" y="138.671" type="line" />
      <point x="229.136" y="143.145" type="line" />
      <point x="236.457" y="159.589" type="line" />
    </contour>
    <contour>
      <point x="314.5" y="143" type="line" />
      <point x="314.5" y="125" type="line" />
      <point x="303.5" y="125" type="line" />
      <point x="303.5" y="143" type="line" />
    </contour>
    <contour>
      <point x="381.543" y="159.589" type="line" />
      <point x="388.864" y="143.145" type="line" />
      <point x="378.815" y="138.671" type="line" />
      <point x="371.494" y="155.114" type="line" />
    </contour>
    <contour>
      <point x="424.163" y="189.318" type="line" />
      <point x="436.207" y="175.942" type="line" />
      <point x="428.033" y="168.581" type="line" />
      <point x="415.988" y="181.958" type="line" />
    </contour>
    <contour>
      <point x="462.886" y="246.506" type="line" />
      <point x="479.329" y="239.185" type="line" />
      <point x="474.855" y="229.136" type="line" />
      <point x="458.411" y="236.457" type="line" />
    </contour>
    <contour>
      <point x="475" y="314.5" type="line" />
      <point x="493" y="314.5" type="line" />
      <point x="493" y="303.5" type="line" />
      <point x="475" y="303.5" type="line" />
    </contour>
    <contour>
      <point x="458.411" y="381.543" type="line" />
      <point x="474.855" y="388.864" type="line" />
      <point x="479.329" y="378.815" type="line" />
      <point x="462.886" y="371.494" type="line" />
    </contour>
    <contour>
      <point x="415.988" y="436.042" type="line" />
      <point x="428.033" y="449.419" type="line" />
      <point x="436.207" y="442.058" type="line" />
      <point x="424.163" y="428.682" type="line" />
    </contour>
    <contour>
      <point x="371.494" y="462.886" type="line" />
      <point x="378.815" y="479.329" type="line" />
      <point x="388.864" y="474.855" type="line" />
      <point x="381.543" y="458.411" type="line" />
    </contour>
  </outline>
</glyph>
<glyph name="acedit.ucf.020" format="2">
  <advance width="618" />
  <unicode hex="E3E0" />
  <outline>
    <contour>
      <point x="451.028" y="391" type="line" />
      <point x="309" y="473" type="line" />
      <point x="166.972" y="391" type="line" />
      <point x="166.972" y="227" type="line" />
      <point x="309" y="145" type="line" />
      <point x="451.028" y="227" type="line" />
    </contour>
    <contour>
      <point x="426.779" y="241" type="line" />
      <point x="309" y="173" type="line" />
      <point x="191.22" y="241" type="line" />
      <point x="191.22" y="377" type="line" />
      <point x="309" y="445" type="line" />
      <point x="426.779" y="377" type="line" />
    </contour>
    <contour>
      <point x="303.5" y="475" type="line" />
      <point x="303.5" y="493" type="line" />
      <point x="314.5" y="493" type="line" />
      <point x="314.5" y="475" type="line" />
    </contour>
    <contour>
      <point x="252.472" y="465.176" type="line" />
      <point x="246.91" y="482.295" type="line" />
      <point x="257.372" y="485.694" type="line" />
      <point x="262.934" y="468.575" type="line" />
    </contour>
    <contour>
      <point x="206.978" y="440.064" type="line" />
      <point x="196.398" y="454.626" type="line" />
      <point x="205.297" y="461.092" type="line" />
      <point x="215.877" y="446.53" type="line" />
    </contour>
    <contour>
      <point x="171.47" y="402.123" type="line" />
      <point x="156.908" y="412.703" type="line" />
      <point x="163.374" y="421.602" type="line" />
      <point x="177.936" y="411.022" type="line" />
    </contour>
    <contour>
      <point x="149.425" y="355.066" type="line" />
      <point x="132.306" y="360.628" type="line" />
      <point x="135.705" y="371.09" type="line" />
      <point x="152.824" y="365.528" type="line" />
    </contour>
    <contour>
      <point x="143" y="303.5" type="line" />
      <point x="125" y="303.5" type="line" />
      <point x="125" y="314.5" type="line" />
      <point x="143" y="314.5" type="line" />
    </contour>
    <contour>
      <point x="152.824" y="252.472" type="line" />
      <point x="135.705" y="246.91" type="line" />
      <point x="132.306" y="257.372" type="line" />
      <point x="149.425" y="262.934" type="line" />
    </contour>
    <contour>
      <point x="177.936" y="206.978" type="line" />
      <point x="163.374" y="196.398" type="line" />
      <point x="156.908" y="205.297" type="line" />
      <point x="171.47" y="215.877" type="line" />
    </contour>
    <contour>
      <point x="215.877" y="171.47" type="line" />
      <point x="205.297" y="156.908" type="line" />
      <point x="196.398" y="163.374" type="line" />
      <point x="206.978" y="177.936" type="line" />
    </contour>
    <contour>
      <point x="262.934" y="149.425" type="line" />
      <point x="257.372" y="132.306" type="line" />
      <point x="246.91" y="135.705" type="line" />
      <point x="252.472" y="152.824" type="line" />
    </contour>
    <contour>
      <point x="314.5" y="143" type="line" />
      <point x="314.5" y="125" type="line" />
      <point x="303.5" y="125" type="line" />
      <point x="303.5" y="143" type="line" />
    </contour>
    <contour>
      <point x="365.528" y="152.824" type="line" />
      <point x="371.09" y="135.705" type="line" />
      <point x="360.628" y="132.306" type="line" />
      <point x="355.066" y="149.425" type="line" />
    </contour>
    <contour>
      <point x="411.022" y="177.936" type="line" />
      <point x="421.602" y="163.374" type="line" />
      <point x="412.703" y="156.908" type="line" />
      <point x="402.123" y="171.47" type="line" />
    </contour>
    <contour>
      <point x="446.53" y="215.877" type="line" />
      <point x="461.092" y="205.297" type="line" />
      <point x="454.626" y="196.398" type="line" />
      <point x="440.064" y="206.978" type="line" />
    </contour>
    <contour>
      <point x="468.575" y="262.934" type="line" />
      <point x="485.694" y="257.372" type="line" />
      <point x="482.295" y="246.91" type="line" />
      <point x="465.176" y="252.472" type="line" />
    </contour>
    <contour>
      <point x="475" y="314.5" type="line" />
      <point x="493" y="314.5" type="line" />
      <point x="493" y="303.5" type="line" />
      <point x="475" y="303.5" type="line" />
    </contour>
    <contour>
      <point x="465.176" y="365.528" type="line" />
      <point x="482.295" y="371.09" type="line" />
      <point x="485.694" y="360.628" type="line" />
      <point x="468.575" y="355.066" type="line" />
    </contour>
    <contour>
      <point x="440.064" y="411.022" type="line" />
      <point x="454.626" y="421.602" type="line" />
      <point x="461.092" y="412.703" type="line" />
      <point x="446.53" y="402.123" type="line" />
    </contour>
    <contour>
      <point x="402.123" y="446.53" type="line" />
      <point x="412.703" y="461.092" type="line" />
      <point x="421.602" y="454.626" type="line" />
      <point x="411.022" y="440.064" type="line" />
    </contour>
    <contour>
      <point x="355.066" y="468.575" type="line" />
      <point x="360.628" y="485.694" type="line" />
      <point x="371.09" y="482.295" type="line" />
      <point x="365.528" y="465.176" type="line" />
    </contour>
  </outline>
</glyph>
